<svg xmlns="http://www.w3.org/2000/svg" width="878" height="360" fill="none"><g clip-path="url(#a)" opacity=".1"><path fill="url(#b)" d="M142.647 534.881c-8.52 0-13.365-1.447-15.926-3.407-14.691-11.079-50.23-6.993-84.645-3.029-39.572 4.554-76.96 8.852-89.524-6.992-5.357-6.748-5.669-16.391-.968-29.507 14.066-39.194 62.559-84.434 100.772-115.489 47.156-38.314 94.936-68.533 115.54-79.49l.501.947-.501-.947c62.203-33.07 117.044-61.83 158.153-78.855 43.436-17.983 70.444-22.648 87.596-15.121 10.024 4.376 16.528 12.916 19.97 26.099 4.778 18.339 14.479 31.523 30.494 41.477 14.546 9.03 33.067 14.642 52.681 20.566 23.734 7.181 50.631 15.321 75.969 31.177 4.243 2.672 6.259 6.157 5.98 10.355-.69 10.645-16.606 25.821-47.278 45.106-26.953 16.947-64.977 36.745-109.939 57.377-63.606 29.195-137.036 57.856-196.287 76.684-55.532 17.615-86.048 23.049-102.588 23.049Zm-49.428-12.693c14.824 0 27.276 1.904 34.794 7.571 10.101 7.616 52.558.334 116.509-19.975 59.229-18.807 132.536-47.423 196.176-76.54 96.418-44.149 154.722-81.784 155.925-100.679.223-3.396-1.403-6.147-4.989-8.385-25.082-15.755-51.834-23.85-75.435-30.987-39.649-11.992-73.886-22.348-84.645-63.557-3.263-12.504-9.4-20.577-18.755-24.686-35.028-15.321-115.485 25.666-243.845 93.921-20.537 10.912-68.161 41.031-115.206 79.257-37.946 30.854-86.204 75.815-100.093 114.553-4.455 12.348-4.232 21.323.624 27.435 11.828 14.921 50.341 10.478 87.596 6.191 17.776-2.048 35.852-4.119 51.344-4.119Z"/><path fill="url(#c)" d="M147.596 527.744c-6.538 0-11.338-.947-14.1-2.962-13.544-9.943-45.943-6.247-77.273-2.661-36.42 4.153-70.812 8.083-82.417-6.503-4.912-6.18-5.257-14.976-1.036-26.912 7.04-20.911 25.494-47.067 53.382-75.627a592.855 592.855 0 0 1 82.674-69.703c30.227-20.543 54.685-34.829 61.457-38.715 62.236-33.315 107.967-56.876 143.673-71.406 38.982-15.834 64.409-20.043 80.19-13.128 9.478 4.131 15.66 12.181 18.934 24.596 4.455 16.847 13.287 28.95 27.933 38.203 13.243 8.373 30.16 13.596 48.136 19.163 21.551 6.681 45.987 14.252 68.997 28.839 3.987 2.639 5.836 6.035 5.569 10.11-2.172 27.324-103.523 76.773-147.026 96.76-101.719 46.788-224.911 89.946-269.093 89.946Zm-44.651-11.369c13.488 0 24.826 1.704 31.742 6.781 20.248 14.798 165.136-33.827 281.155-87.184 89.858-41.321 144.342-76.829 145.757-95.09.256-3.34-1.248-6.035-4.611-8.262-22.754-14.475-47.056-21.969-68.496-28.605-36.219-11.224-67.504-20.855-77.417-58.78-3.085-11.78-8.91-19.385-17.82-23.26-32.967-14.386-109.325 24.096-222.048 84.456-6.738 3.864-31.185 18.116-61.256 38.604a591.37 591.37 0 0 0-82.418 69.447c-27.676 28.349-45.975 54.237-52.925 74.88-3.976 11.246-3.742 19.408.713 24.998 10.926 13.706 46.354 9.665 80.613 5.756 16.305-1.859 32.844-3.741 47.011-3.741Z"/><path fill="url(#d)" d="M152.963 520.729c-5.803 0-10.135-.835-12.697-2.639-12.374-8.808-41.643-5.501-69.943-2.294-33.257 3.752-64.665 7.304-75.335-6.024-4.455-5.567-4.844-13.551-1.113-24.307 6.025-19.396 22.665-44.85 46.877-71.64 22.498-24.908 49.651-48.859 74.488-65.694 16.851-10.946 32.299-20.41 44.795-28.026 4.849-2.97 9.036-5.542 12.563-7.717 45.92-24.796 93.31-49.682 129.195-63.957 35.017-13.941 58.127-17.481 72.706-11.135 8.966 3.886 14.824 11.447 17.887 23.116 8.776 33.46 36.62 42.345 68.919 52.633 19.39 6.18 41.364 13.184 62.035 26.445 8.108 5.734 4.99 13.763.947 19.497-21.161 30.063-118.28 77.285-194.906 108.574-69.498 28.337-144.765 53.168-176.418 53.168Zm-40.028-10.222c12.073 0 22.085 1.537 28.422 6.046 13.599 9.554 90.615-11.313 187.278-50.74 45.251-18.462 88.743-38.716 122.512-57.01 37.868-20.554 62.66-38.158 71.648-50.907 5.234-7.416 5.089-12.928-.457-16.847-20.426-13.105-42.322-20.042-61.557-26.211-32.8-10.455-61.134-19.486-70.166-54.003-2.907-11.068-8.409-18.216-16.818-21.868-28.712-12.449-89.935 15.499-200.185 75.025a2127.768 2127.768 0 0 1-12.53 7.694c-12.441 7.605-27.922 17.069-44.728 27.981-24.703 16.78-51.734 40.631-74.131 65.416-24.035 26.601-40.54 51.81-46.488 70.972-3.509 10.122-3.241 17.493.802 22.537 10.023 12.515 42.322 8.908 73.64 5.322 15.248-1.726 30.139-3.407 42.758-3.407Z"/><path fill="url(#e)" d="M157.984 513.647c-4.8 0-8.631-.657-10.948-2.227-11.215-7.672-37.333-4.754-62.604-1.926-28.768 3.207-58.527 6.536-68.24-5.567-4.042-5.022-4.454-12.126-1.19-21.713 10.502-37.735 61.345-99.432 106.663-129.407 7.562-4.654 14.78-9.008 21.763-13.217 12.819-7.727 23.89-14.397 31.497-19.552h.078c53.526-29.206 87.797-46.086 114.582-56.475 31.096-12.059 51.834-14.987 65.233-9.219 8.486 3.652 14.022 10.745 16.906 21.679 7.964 30.253 32.912 38.481 61.813 48.012 17.219 5.679 36.754 12.115 55.075 24.051 6.104 4.632 6.215 11.135.39 19.252-8.665 12.137-31.185 28.46-65.232 47.211-30.071 16.557-68.741 34.829-108.981 51.442-39.27 16.212-77.361 29.785-107.254 38.225-16.673 4.666-36.642 9.431-49.551 9.431Zm-35.339-8.908c10.737 0 19.658 1.337 25.371 5.256 6.226 4.176 27.198 1.525 59.029-7.46 29.826-8.418 67.85-21.969 107.065-38.159 67.66-27.936 153.698-70.371 173.456-97.984 5.245-7.338 5.245-12.839 0-16.803-18.099-11.78-37.5-18.171-54.574-23.817-29.381-9.687-54.752-18.06-62.949-49.237-2.74-10.377-7.953-17.08-15.905-20.51-27.12-11.669-85.892 15.221-178.2 65.605-7.651 5.178-18.722 11.848-31.541 19.586-6.983 4.198-14.201 8.552-21.73 13.184-45.006 29.762-95.515 90.992-105.928 128.438-3.052 9.019-2.763 15.588.88 20.098 9.11 11.312 38.38 8.05 66.68 4.888 13.677-1.637 27.019-3.085 38.346-3.085Z"/><path fill="url(#f)" d="M163.186 506.543c-4.077 0-7.34-.545-9.378-1.837-10.024-6.536-33.023-4.008-55.242-1.57-25.761 2.84-52.402 5.768-61.178-5.044-3.61-4.454-4.021-10.689-1.26-19.107 3.932-16.479 16.596-40.296 33.848-63.657 18.354-24.841 39.538-45.908 58.115-57.8l5.491-3.128c17.419-10.022 33.869-19.386 43.681-26.657h.089c90.849-50.217 135.076-66.017 157.752-56.341 8.03 3.418 13.254 10.021 15.971 20.276 7.128 26.991 29.158 34.518 54.674 43.336 15.047 5.178 32.11 11.046 48.125 21.657h.078c5.569 4.632 5.569 11.046-.267 19.051-18.678 25.799-91.506 62.7-153.419 88.643-34.092 14.275-67.282 26.267-93.455 33.75-14.657 4.197-32.265 8.428-43.625 8.428Zm-30.807-7.66c9.389 0 17.219 1.113 22.275 4.454 11.138 7.048 72.138-10.022 144.966-40.475 35.094-14.697 68.874-30.921 95.114-45.652 29.671-16.702 49.596-31.344 57.615-42.423 5.257-7.271 5.446-12.771.568-16.813-15.838-10.489-32.767-16.312-47.713-21.445-25.962-8.908-48.371-16.636-55.688-44.472-2.584-9.699-7.495-15.978-15.036-19.196-25.538-10.89-80.947 14.608-156.281 56.241-9.89 7.326-26.363 16.702-43.804 26.723l-5.446 3.118c-18.388 11.769-39.416 32.691-57.648 57.376-17.14 23.194-29.692 46.766-33.602 63.134-2.595 7.905-2.227 13.662.958 17.637 8.22 10.122 34.415 7.238 59.742 4.454 12.14-1.358 23.945-2.661 33.98-2.661Z"/><path fill="url(#g)" d="M168.465 499.494c-3.475 0-6.159-.467-7.885-1.47-8.91-5.422-28.702-3.34-47.891-1.213-22.765 2.461-46.288 4.999-54.129-4.554-3.163-3.864-3.608-9.253-1.347-16.468 5.568-29.496 41.275-91.494 77.283-113.574 17.252-9.019 34.905-18.506 45.073-26.812l.112-.078c74.265-41.744 114.816-55.818 135.61-47.066 7.618 3.207 12.552 9.409 15.113 18.929 6.304 23.728 25.416 30.654 47.535 38.682 12.887 4.665 27.488 9.954 41.209 19.251l.078.056c5.19 4.721 4.889 11.135-.902 19.007-17.297 23.572-79.811 56.018-132.536 78.521-44.417 19.018-95.917 36.789-117.323 36.789Zm-26.34-6.413c8.041 0 14.768.935 19.223 3.652 10.024 5.857 62.136-8.997 123.849-35.33 52.547-22.426 114.85-54.649 131.924-78.032 5.313-7.249 5.691-12.794 1.114-16.969-13.532-9.164-28.022-14.42-40.797-19.052-22.509-8.172-41.988-15.198-48.459-39.695-2.428-9.074-7.084-14.942-14.245-17.96-20.315-8.551-60.465 5.49-134.24 46.966-10.291 8.385-27.989 17.894-45.23 26.913-35.64 21.835-71.046 83.342-76.559 112.549v.089c-2.116 6.68-1.77 11.669 1.058 15.121 7.318 8.907 30.45 6.424 52.803 4.019 10.558-1.169 20.827-2.271 29.559-2.271Z"/><path fill="url(#h)" d="M173.722 492.491a14.369 14.369 0 0 1-6.37-1.113c-7.685-4.287-24.358-2.539-40.474-.847-19.758 2.083-40.195 4.232-47.1-4.064-2.696-3.24-3.175-7.894-1.415-13.862 3.197-25.677 31.786-87.841 62.593-105.59 12.886-5.957 31.084-14.865 40.975-23.839l.122-.089c58.517-33.649 94.535-45.652 113.346-37.858 7.162 2.962 11.996 8.908 14.379 17.748 5.469 20.466 21.651 26.724 40.396 34.028 10.714 4.153 22.854 8.908 34.236 16.835l.089.078c4.767 4.866 4.233 11.291-1.581 19.107-7.084 9.554-21.774 20.978-43.637 33.983a633.567 633.567 0 0 1-67.939 34.284c-36.72 15.989-79.677 31.199-97.62 31.199Zm-21.807-5.177c6.683 0 12.251.734 16.083 2.861 8.91 4.666 52.19-8.028 102.821-30.186 66.224-28.95 100.761-54.025 111.007-67.821 5.324-7.171 5.915-12.994 1.749-17.292-11.227-7.794-22.754-12.315-33.902-16.646-19.079-7.405-35.563-13.807-41.209-34.952-2.295-8.496-6.683-14.007-13.577-16.836-18.377-7.604-53.994 4.399-112.076 37.791-10.024 9.086-28.334 18.039-41.209 23.996-30.428 17.537-58.728 79.189-61.87 104.598v.112c-1.659 5.567-1.28 9.743 1.115 12.66 6.426 7.727 26.496 5.567 45.897 3.574 8.999-.991 17.742-1.904 25.171-1.904v.045Z"/><path fill="url(#i)" d="M119.381 485.689c-8.286 0-15.102-1.192-18.432-5.1-2.228-2.661-2.762-6.447-1.493-11.246.802-22.08 21.718-83.855 47.892-97.662h.066c17.431-6.681 29.827-13.707 36.832-20.833l.123-.089c43.659-25.944 74.231-35.687 90.882-28.95 6.905 2.795 11.56 8.429 13.844 16.702 4.644 17.225 17.898 22.87 33.234 29.406 8.554 3.641 18.254 7.795 27.309 14.398l.111.1c4.311 5.088 3.542 11.624-2.305 19.441-11.917 15.945-45.664 37.546-90.381 57.766a464.517 464.517 0 0 1-52.346 20.321c-11.138 3.43-25.427 7.015-30.662 4.699-6.493-3.173-19.98-1.804-33.022-.479-7.396.757-14.969 1.526-21.652 1.526Zm28.546-112.895c-15.181 8.028-27.165 31.823-33.001 45.296-7.996 18.584-13.855 39.706-14.256 51.364v.134c-1.203 4.454-.802 7.794 1.225 10.199 5.569 6.547 22.598 4.821 39.071 3.151 13.821-1.403 26.875-2.728 33.668.579 16.194 7.182 144.788-46.286 171.83-82.396 5.435-7.271 6.237-13.273 2.394-17.815-8.91-6.525-18.109-10.434-26.997-14.219-15.648-6.681-29.158-12.416-33.947-30.22-2.227-7.928-6.582-13.283-13.12-15.922-16.25-6.57-46.443 3.14-89.713 28.827-7.116 7.193-19.624 14.275-37.154 21.022Z"/><path fill="url(#j)" d="M137.836 479.007c-6.994 0-12.786-.98-15.67-4.242-1.838-2.082-2.362-4.988-1.56-8.641-.891-9.687 2.484-30.186 7.863-47.767 4.021-13.184 12.675-36.165 25.349-41.956h.078c8.554-2.438 24.158-8.005 32.722-17.815l.134-.1c30.238-18.929 53.772-25.944 68.039-20.399 6.838 2.65 11.438 8.084 13.688 16.134 3.809 13.974 14.122 18.996 26.062 24.808 6.682 3.263 13.643 6.681 20.404 11.937l.111.111c3.865 5.456 2.851 12.248-3.018 20.109-10.147 13.629-35.919 31.177-68.953 46.933-29.091 13.873-55.23 22.269-62.158 19.908-5.279-2.06-15.091-1.113-25.471-.111-6.003.501-12.196 1.091-17.62 1.091Zm16.406-101.581c-21.162 9.709-34.115 71.863-32.533 88.687V466.28c-.757 3.341-.334 5.913 1.303 7.795 4.734 5.355 18.767 3.997 32.299 2.694 10.525-1.013 20.459-1.971 25.961.178 6.549 2.227 32.912-6.335 61.257-19.875 32.877-15.678 58.494-33.103 68.54-46.599 5.568-7.426 6.56-13.729 3.051-18.728-6.682-5.2-13.509-8.54-20.136-11.769-12.185-5.935-22.71-11.057-26.652-25.499-2.139-7.705-6.527-12.882-13.02-15.41-13.922-5.4-37.077 1.603-66.981 20.265-8.676 9.988-24.436 15.611-33.089 18.094Z"/><path fill="url(#k)" d="M156.381 472.338c-5.735 0-10.536-.769-13.008-3.341a6.965 6.965 0 0 1-1.532-2.824 6.957 6.957 0 0 1-.105-3.211c-2.128-7.338-1.526-26.523 1.37-43.803 4.956-29.63 12.886-36.533 17.174-38.014h.078c12.251-1.871 22.976-7.438 28.623-14.887l.111-.111c22.799-15.589 36.821-15.444 44.55-12.638 6.939 2.505 11.839 8.15 14.167 16.323 3.007 10.723 10.347 15.143 18.845 20.265a87.964 87.964 0 0 1 13.554 9.42l.1.134c3.408 6.09 2.228 13.25-3.608 21.311-18.934 26.267-78.252 52.333-88.978 50.351-3.965-.98-10.602-.39-17.63.234-4.689.367-9.501.791-13.711.791Zm4.21-90.291c-6.927 2.438-12.941 16-16.494 37.234-2.885 17.236-3.486 36.332-1.37 43.425V462.918a6.017 6.017 0 0 0 .036 2.83 6.016 6.016 0 0 0 1.323 2.503c3.987 4.187 15.648 3.151 25.939 2.227 7.106-.635 13.822-1.236 17.92-.223 5.391 1.014 23.099-5.311 41.209-14.72 21.818-11.368 38.881-24.217 46.777-35.252 5.569-7.683 6.739-14.475 3.587-20.187a87.49 87.49 0 0 0-13.365-9.264c-8.665-5.178-16.161-9.687-19.268-20.822-2.228-7.861-6.939-13.272-13.566-15.677-7.518-2.717-21.161-2.762-43.614 12.482-5.792 7.649-16.684 13.328-29.114 15.232Z"/><path fill="url(#l)" d="M503.946 239.545c-13.15 0-21.785-2.969-25.906-8.907-5.257-7.605-2.952-20.043 6.861-36.8 10.647-18.228 30.427-42.312 58.783-71.563 37.556-38.726 74.41-71.696 109.538-97.984 30.517-22.86 60.699-41.4 89.701-55.095 50.787-23.995 91.139-30.342 127.18-33.626 38.624-3.519 72.126 1.046 99.547 13.55a125.136 125.136 0 0 1 56.05 49.35c27.85 45.562 24.72 103.796 5.66 133.771-8.91 14.063-20.9 21.033-33.689 19.63-54.139-5.935-102.175-7.549-146.848-4.921-61.557 3.607-115.974 15.466-161.727 35.252-32.722 14.141-80.647 33.593-123.192 45.908-26.341 7.616-47.034 11.435-61.958 11.435ZM870.203-63.317l.089 1.114c-35.841 3.273-75.969 9.575-126.444 33.404-28.88 13.55-58.94 32.023-89.334 54.748-35.061 26.29-71.815 59.192-109.282 97.841-28.244 29.128-47.891 53.056-58.471 71.139-9.356 16.034-11.695 27.647-6.961 34.517 8.052 11.647 37.622 10.467 85.513-3.396 42.434-12.248 90.27-31.7 122.925-45.819 45.998-19.886 100.65-31.812 162.463-35.43 44.795-2.628 92.942-1.014 147.204 4.932 11.935 1.314 23.165-5.311 31.645-18.639 18.7-29.429 21.69-86.672-5.68-131.522a123.059 123.059 0 0 0-55.111-48.503c-27.087-12.36-60.21-16.858-98.467-13.361l-.089-1.025Z"/><path fill="url(#m)" d="M522.737 222.843c-12.107 0-20.048-2.728-23.801-8.195-10.024-14.697 9.857-47.311 60.878-99.71C626.761 47.885 691.036.529 750.878-25.826c48.559-21.401 86.026-26.044 119.271-27.837 34.326-2.817 64.063 1.37 88.365 12.448a111.121 111.121 0 0 1 49.756 43.693c8.11 13.306 17.82 35.486 17.9 65.527.07 21.345-5.07 41.9-14.12 56.419-9.04 14.52-21.415 22.036-34.602 20.822-98.545-7.794-201.812-9.821-289.33 27.258-29.726 12.604-73.029 29.852-110.507 40.485-23.232 6.547-41.565 9.854-54.874 9.854ZM890.275-52.538c-6.497 0-13.18.282-20.048.846-33.089 1.826-70.333 6.447-118.603 27.703-59.597 26.266-123.627 73.488-190.452 140.296-26.017 26.846-44.182 48.881-54.005 65.528-8.665 14.731-10.871 25.398-6.56 31.689 7.295 10.667 33.022 9.821 76.447-2.506 37.367-10.611 80.591-27.836 110.262-40.407 87.908-37.246 191.465-35.186 290.277-27.402 12.407 1.113 24.027-5.935 32.717-19.887 8.85-14.197 13.89-34.373 13.83-55.35 0-16.324-3.14-40.764-17.61-64.48a109.09 109.09 0 0 0-48.874-42.903c-19.134-8.74-41.721-13.127-67.337-13.127h-.044Z"/><path fill="url(#n)" d="M541.491 206.153c-11.071 0-18.333-2.494-21.696-7.483-9.077-13.428 9.277-43.224 56.111-91.092 63.907-61.909 125.43-105.111 182.9-128.394 46.777-18.929 82.54-21.835 111.375-22.135 30.071-2.138 56.1 1.692 77.305 11.39 18.645 8.518 33.29 21.357 43.515 38.17 10.219 16.813 15.589 36.967 15.409 58.167-.16 19.341-4.93 37.646-13.427 51.554-9.367 15.332-22.074 23.226-35.785 22.269l-7.595-.368c-40.819-2.004-87.074-4.264-132.181-1.792-51.611 2.828-94.234 11.446-130.308 26.344-38.915 16.079-71.826 27.837-97.843 35.074-20.107 5.531-36.034 8.296-47.78 8.296ZM885.94-41.66c-5.093 0-10.32.19-15.681.568-28.724.3-64.286 3.151-110.74 22.002C702.272 4.126 640.96 47.195 577.264 108.914c-45.441 46.454-64.252 76.261-55.821 88.698 6.427 9.521 29.102 8.964 67.393-1.625 25.94-7.182 58.784-18.929 97.62-34.996 36.264-14.988 79.077-23.65 130.922-26.49 45.207-2.483 91.517-.211 132.369 1.782l7.618.378c12.998.936 25.082-6.68 34.07-21.345 8.186-13.361 12.985-31.845 13.145-50.573.18-20.844-5.048-40.62-15.139-57.177a95.08 95.08 0 0 0-42.679-37.434c-17.218-7.85-37.6-11.792-60.822-11.792Z"/><path fill="url(#o)" d="M560.249 189.629c-10.024 0-16.517-2.294-19.568-6.881-8.097-12.193 8.72-39.172 51.388-82.53C652.924 43.431 711.686 4.36 766.749-15.85c45.441-16.702 79.144-17.537 103.434-16.401 62.059-3.519 90.704 21.523 103.802 43.169 8.91 14.62 13.365 32.146 12.908 50.685-.378 16.958-4.845 33.404-12.596 46.364-9.578 15.967-23.166 24.664-37.333 23.918-10.403-.201-21.106-.479-31.452-.746-76.014-1.971-154.622-4.02-219.409 21.868-61.167 24.441-102.822 36.622-125.854 36.622ZM856.395-30.837c-22.642 0-51.889 2.984-89.1 16.624-54.785 20.12-113.313 59.092-174.001 115.689-41.376 42.044-58.594 69.035-51.154 80.258 5.568 8.374 25.204 8.118 58.36-.757 22.186-5.946 49.985-15.588 84.99-29.607 65.077-26.01 143.875-23.962 220.066-21.991 10.347.279 21.05.557 31.464.746 13.754.713 26.44-7.471 35.773-23.06 7.585-12.682 11.973-28.783 12.341-45.484.4-18.206-3.977-35.409-12.653-49.739-12.852-21.234-41.03-45.819-102.242-42.312h-.089a264.17 264.17 0 0 0-13.755-.367Z"/><path fill="url(#p)" d="M579.083 172.994c-8.542 0-14.746-1.849-17.586-6.213-7.095-10.89 8.175-35.074 46.688-73.923C666.1 41.093 722.078 6.208 774.691-10.862c33.647-10.923 64.899-14.408 95.527-10.655 52.346-2.027 76.269 18.995 87.05 36.989 7.407 12.36 11.004 27.258 10.403 43.069a88.517 88.517 0 0 1-11.583 40.797c-9.69 16.513-23.612 25.899-38.336 25.899h-1.035c-17.82.178-35.54 0-52.681-.156-65.867-.623-128.081-1.213-178.879 18.206-38.369 14.642-81.716 29.707-106.074 29.707Zm267.3-194.333c-22.876 0-46.343 3.975-71.135 12.025C722.902 7.678 667.036 42.451 609.366 94.038c-37.333 37.657-52.97 61.842-46.443 71.852 11.649 17.882 91.606-12.638 121.71-24.14 51.088-19.519 113.447-18.929 179.47-18.305 17.13.167 34.849.334 52.692.156 14.478.434 28.334-8.719 37.945-25.087a86.96 86.96 0 0 0 11.372-40.084c.579-15.489-2.941-30.064-10.191-42.167-10.559-17.627-33.992-38.215-85.648-36.2h-.222a193.96 193.96 0 0 0-23.723-1.402h.055Z"/><path fill="url(#q)" d="M597.685 156.447c-7.574 0-12.975-1.659-15.426-5.567-6.114-9.631 7.652-31.032 42.055-65.405C679.278 38.71 732.527 7.967 782.623-5.895c40.719-11.269 70.166-8.908 87.641-4.911 42.902-.601 62.114 16.546 70.645 31.055 11.661 19.82 10.714 47.333-2.394 70.148-10.18 17.67-25.806 28.204-41.833 28.204h-.2c-25.405.969-49.005 1.002-71.926 1.035-54.663.078-101.886.145-140.389 13.941-34.27 12.226-67.315 22.87-86.482 22.87ZM838.99-12.543c-43.158 0-116.576 16.513-213.662 99.098-33.323 33.293-47.401 54.671-41.81 63.468 9.222 14.553 70.634-7.416 100.148-17.972 38.748-13.884 86.082-13.951 140.89-14.04 22.854 0 46.488-.067 71.892-1.036h.201c15.525 0 30.661-10.244 40.574-27.447 12.841-22.269 13.788-49.226 2.394-68.59-8.331-14.173-27.153-30.953-69.42-30.308H869.974a139.734 139.734 0 0 0-30.984-3.173Z"/><path fill="url(#r)" d="M616.482 139.957c-6.582 0-11.482-1.38-13.576-4.832-5.112-8.407 7.172-27.046 37.533-56.987C692.54 36.305 743.027 9.727 790.562-.918a186.85 186.85 0 0 1 49.684-4.743c15.47.79 25.438 3.819 30.071 5.567 20.393.423 36.086 5.567 46.622 15.254 9.11 8.374 13.922 19.887 13.933 33.293 0 14.764-5.803 30.308-15.938 42.668-10.725 13.083-24.502 20.443-38.691 20.733-33.691 2.226-63.284 2.393-89.39 2.549-42.523.245-76.103.435-103.668 9.376l-1.704.545c-20.359 6.625-48.181 15.633-64.999 15.633ZM832.55-4.448a191.04 191.04 0 0 0-41.643 4.9c-47.335 10.566-97.631 37.044-149.521 78.71-29.37 28.95-41.933 47.567-37.266 55.25 6.883 11.335 50.764-2.861 76.982-11.346l1.693-.545c27.766-9.008 61.446-9.198 104.08-9.443 26.095-.156 55.688-.323 89.345-2.538 13.844-.29 27.22-7.472 37.69-20.243 9.934-12.115 15.592-27.347 15.592-41.8 0-13.016-4.666-24.184-13.487-32.29C905.701 6.72 890.276 1.732 870.173 1.32H869.939c-4.567-1.804-17.141-5.768-37.433-5.768h.044Z"/><path fill="url(#s)" d="M635.215 123.812c-5.769 0-10.024-1.202-11.839-4.309-4.11-7.215 6.749-23.149 33.19-48.725 33.858-25.376 85.959-57.522 141.88-66.619 16.45-2.672 32.366-3.14 46.021-1.325 10.736 1.426 20.147 4.298 25.85 7.906 39.337 2.917 43.336 26.3 43.213 36.22-.144 12.717-6.582 27.058-17.218 38.36-11.416 12.159-25.761 19.24-40.385 19.964-43.436 4.042-77.573 4.031-104.971 4.02-29.603 0-50.954 0-68.841 4.832l-4.455 1.203c-14.39 3.897-31.207 8.473-42.445 8.473Zm22.186-52.11c-25.616 24.752-36.687 40.63-32.956 47.189 4.756 8.34 33.78.434 52.981-4.788l4.455-1.203c18.043-4.888 39.483-4.877 69.164-4.877 27.387 0 61.457 0 104.882-4.019 14.122-.691 28.534-7.794 39.572-19.575 10.435-11.135 16.706-25.109 16.884-37.524.234-20.276-15.158-33.025-42.222-34.985h-.156l-.134-.089c-11.137-7.17-37.522-11.958-71.135-6.491-30.762 5.021-80.157 20.61-141.335 66.362Z"/><path fill="url(#t)" d="M654.118 108.112c-5.212 0-9.211-1.002-10.659-3.886-1.447-2.883-.111-7.449 4.222-13.717 4.722-6.815 13.131-15.934 25.014-27.091h.067c57.915-39.929 104.693-51.542 133.65-54.26 33.535-3.14 56.623 4.165 64.019 12.338 24.391 4.009 27.465 17.57 27.186 25.31-.868 21.266-28.657 49.092-61.88 51.775-56.01 6.681-91.695 5.657-117.757 4.899-15.837-.456-27.286-.79-36.82.891-1.57.267-3.197.568-4.878.869-7.618 1.392-15.804 2.872-22.164 2.872Zm19.301-43.859c-22.007 20.677-31.764 33.96-28.957 39.484 2.806 5.522 18.822 2.75 31.653.412 1.67-.301 3.341-.602 4.878-.869 9.645-1.704 21.161-1.37 37.043-.902 26.017.746 61.657 1.782 117.612-4.9 14.768-1.19 30.071-7.916 42.144-18.438 11.316-9.91 18.322-21.98 18.745-32.29.523-12.76-8.91-21.38-26.44-24.24h-.19l-.134-.157c-5.891-6.68-27.598-15.454-63.205-12.114-28.879 2.672-75.39 14.252-133.149 54.014Z"/><path fill="url(#u)" d="M733.362 98.793a289.648 289.648 0 0 1-42.624-2.995c-4.31-.58-7.707-1.047-10.647-1.114l-2.317-.089c-6.816-.256-13.866-.512-15.358-4.632-1.203-3.34.211-10.522 26.407-33.86h.067c33.122-20.544 65.945-33.727 97.531-39.205 33.167-5.735 54.751-1.114 64.675 2.137 10.202 3.34 17.263 8.196 19.435 13.362 11.939 4.331 13.755 11.29 13.176 16.38-.947 8.272-9.189 18.227-22.053 26.622a110.61 110.61 0 0 1-46.165 16.702c-36.163 5.11-62.537 6.692-82.127 6.692Zm-53.227-5.133c2.974.122 6.404.579 10.737 1.113 17.686 2.439 50.653 6.893 124.495-3.819 35.094-4.042 65.544-26.523 67.371-42.434.779-6.837-3.62-12.17-12.742-15.421l-.2-.078-.089-.2c-1.96-4.922-8.91-9.632-18.934-12.95-11.138-3.653-71.057-19.03-161.338 36.944-19.312 17.215-27.844 27.937-26.106 32.78 1.258 3.497 7.974 3.742 14.479 3.976l2.316.089h.011Z"/><path fill="url(#v)" d="M717.199 93.582c-4.596 0-8.817-.156-12.664-.467-18.933-1.537-24.012-6.681-25.616-8.34a7.062 7.062 0 0 1-2.227-5.568c.389-6.08 8.609-14.931 28.367-30.553h.067c31.73-17.192 64.341-27.403 94.312-29.54 33.869-2.417 52.658 5.901 59.162 9.598 7.496 4.242 11.773 9.353 12.073 14.475 2.896 3.106 3.765 6.424 2.595 9.854-2.784 8.117-16.283 14.91-27.119 19.185-14.201 5.567-32.299 10.233-50.821 13.083-32.521 5.49-58.683 8.273-78.129 8.273Zm-37.734-9.409c11.249 11.358 50.119 11.436 115.629.245 33.981-5.21 72.606-18.094 77.272-31.711 1.114-3.151.234-6.213-2.517-9.108l-.111-.123v-.156c-.212-4.81-4.344-9.731-11.65-13.873-27.253-15.455-86.639-15.8-152.584 19.93-19.268 15.244-27.654 24.185-28.022 29.92a6.136 6.136 0 0 0 2.027 4.888l-.044-.012Z"/><path fill="url(#w)" d="M700.76 88.392c-11.951 0-19.324-1.77-22.276-5.31-1.782-2.139-1.982-4.889-.612-8.407 2.361-6.024 11.327-13.362 18.433-18.54a158.09 158.09 0 0 1 24.847-14.842c37.567-16.936 68.585-19.864 87.987-19.33 22.531.613 42.545 6.37 53.538 15.4 6.348 5.221 9.133 11.134 7.796 16.701-3.252 13.94-27.443 16.39-55.454 19.219-13.153 1.336-26.73 2.705-40.095 5.322-33.323 6.525-57.959 9.787-74.164 9.787Zm20.537-46.765.145.334c-12.831 5.779-38.881 22.692-42.902 32.98-1.27 3.263-1.114 5.78.49 7.695 6.683 7.994 38.915 6.402 95.783-4.732 13.365-2.617 26.986-3.998 40.095-5.334 27.732-2.806 51.678-5.222 54.819-18.673 1.225-5.266-1.47-10.934-7.596-15.967-10.87-8.907-30.717-14.63-53.104-15.243-19.334-.535-50.208 2.383-87.663 19.274l-.067-.334Z"/><path fill="url(#x)" d="M1055.61 851.127c-20.94 0-42.1-.683-63.483-2.049-120.285-7.705-197.479-45.73-236.015-116.257-33.412-61.118-32.833-137.156-32.299-204.231.335-44.784.647-87.073-9.489-117.793-33.757-102.25-70.979-125.031-93.209-138.638-12.931-7.928-21.429-13.083-20.594-29.084.78-15.733 58.327-35.797 181.096-63.133 53.093-11.836 94.324-1.581 127.447 6.681 16.595 4.12 30.951 7.694 43.547 7.649 34.671-.089 44.149-3.875 64.899-12.17 17.31-6.914 43.44-17.37 99.49-31.433 49.23-12.348 126.11-14.931 200.64-6.736a703.567 703.567 0 0 1 119.66 23.304c41.42 12.093 77.78 27.648 108.04 46.254 56.1 34.517 90.61 78.677 102.56 131.388 11.79 51.955 10.27 105.1-4.45 157.968-14.68 52.511-41.67 102.06-80.19 147.289-56.13 65.828-134.68 118.906-227.14 153.479-49.29 18.439-102.63 31.701-158.53 39.428a892.627 892.627 0 0 1-121.98 8.084ZM829.798 176.668a218.542 218.542 0 0 0-47.758 5.312c-55.832 12.437-97.397 23.182-127.067 32.847-42.802 13.94-52.09 23.082-52.347 28.304-.735 14.776 6.471 19.185 19.558 27.191 22.486 13.762 60.142 36.8 94.134 139.806 10.246 31.055 9.935 73.489 9.6 118.473-.501 66.808-1.058 142.523 32.065 203.185 38.157 69.836 114.783 107.505 234.267 115.143 63.92 4.098 126.14 2.049 184.95-6.079 55.75-7.705 108.93-20.933 158.08-39.306 92.12-34.461 170.41-87.317 226.25-152.867 38.36-44.984 65.2-94.266 79.79-146.476 14.68-52.511 16.18-105.312 4.46-156.91-11.81-52.11-45.99-95.913-101.58-130.052-30.07-18.495-66.31-33.983-107.54-46.02a702.077 702.077 0 0 0-119.3-23.238c-74.28-8.172-150.89-5.567-199.88 6.681-55.89 14.03-81.96 24.496-99.21 31.344-21.02 8.407-30.609 12.248-65.715 12.326h-.178c-12.841 0-27.231-3.574-43.881-7.716-22.197-5.512-48.059-11.948-78.698-11.948Z"/><path fill="url(#y)" d="M1066.28 812.055c-16.94 0-34.04-.49-51.29-1.469-108.629-5.946-179.319-38.905-215.972-100.769-31.887-53.736-33.624-121.479-35.173-181.25-1.113-41.632-2.082-80.949-13.153-109.642-34.036-91.839-69.743-114.208-91.082-127.57-12.887-8.073-21.407-13.362-20.85-28.95.167-8.808 15.994-19.408 47.023-31.5 27.921-10.867 67.07-22.503 113.201-33.638 48.17-11.825 85.759-3.752 115.964 2.728 14.601 3.129 27.209 5.835 38.603 5.846 36.119.111 45.073-2.75 71.639-11.135 17.82-5.667 42.32-13.361 87.33-24.34 46.14-11.201 117.86-13.529 187.18-6.057a661.078 661.078 0 0 1 111.64 21.245c38.64 11.134 72.49 25.465 100.6 42.634 50.71 30.977 82.17 70.638 93.56 117.894 11.29 47.545 10.42 96.259-2.58 144.75-12.92 48.224-37.14 93.776-72 135.386-50.38 60.127-121.12 108.808-204.6 140.775-44.55 17.036-92.73 29.418-143.34 36.745a812.165 812.165 0 0 1-116.7 8.317ZM848.502 193.17a204.488 204.488 0 0 0-49.005 5.979c-97.621 23.55-158.42 47.779-158.721 63.234-.512 14.475 7.173 19.263 19.903 27.235 21.562 13.495 57.625 36.087 91.895 128.561 11.138 29.005 12.252 68.489 13.287 110.299 1.537 59.526 3.275 126.991 34.894 180.281C837.086 770 907.196 802.635 1015.1 808.537c57.99 3.284 114.38 1.024 167.59-6.681 50.46-7.349 98.54-19.686 142.91-36.666 83.16-31.846 153.62-80.315 203.82-140.186 34.67-41.387 58.76-86.683 71.6-134.617 12.92-48.202 13.78-96.582 2.56-143.793-11.22-46.766-42.32-85.948-92.62-116.647-37.12-22.681-103.95-52.143-211.42-63.712-69.06-7.438-140.58-5.133-186.5 6.013-44.97 10.901-69.38 18.65-87.2 24.307-26.058 8.262-35.825 11.357-72.245 11.279-11.605 0-24.313-2.75-38.981-5.901-18.945-4.087-40.708-8.763-66.112-8.763Z"/><path fill="url(#z)" d="M1077.51 772.984c-13.07 0-26.28-.319-39.65-.958-97.062-4.208-161.147-32.168-195.919-85.469-30.294-46.454-34.27-105.935-37.778-158.424-2.573-38.336-4.99-74.546-17.063-101.147-34.181-81.416-68.373-103.296-88.788-116.368-12.997-8.318-21.584-13.818-21.273-28.95-.222-20.71 72.082-49.315 139.364-67.131 43.436-11.925 77.573-6.001 104.971-1.236 12.429 2.16 23.155 4.02 33.156 4.087 41.031.334 48.55-1.57 90.31-12.081 15.74-3.964 35.31-8.908 63.23-15.377 28.55-6.681 68.02-9.921 111.13-9.198 48.52.813 97.38 6.681 141.3 16.814 51.99 12.047 95.35 29.64 128.9 52.333 39.06 26.389 63.85 59.202 73.67 97.528 10.83 43.147 10.62 87.429-.61 131.634-11.14 43.937-32.62 85.491-63.78 123.505-44.63 54.426-107.59 98.709-182.08 128.048-71.66 28.149-151.95 42.39-239.09 42.39Zm-209.507-563.58a190.99 190.99 0 0 0-51.11 6.926c-80.123 21.211-138.105 48.681-137.96 65.316-.301 14.141 7.495 19.118 20.393 27.38 20.604 13.194 55.097 35.274 89.501 117.214 12.251 26.879 14.634 63.256 17.218 101.771 3.497 52.255 7.451 111.469 37.478 157.51 34.415 52.767 98.01 80.448 194.427 84.624 102.28 4.91 195.8-9.008 277.97-41.365 74.19-29.218 136.89-73.3 181.31-127.481 30.98-37.802 52.34-79.056 63.4-122.782 11.14-43.892 11.36-87.863.63-130.698-9.7-37.858-34.24-70.304-72.91-96.437-33.34-22.526-76.5-40.029-128.26-52.021-43.8-10.155-92.53-15.945-140.91-16.702-42.97-.724-82.27 2.527-110.67 9.141-27.85 6.492-47.47 11.413-63.19 15.366-41.96 10.567-49.525 12.46-90.801 12.137-10.157-.056-20.961-1.938-33.412-4.109-15.415-2.75-32.989-5.79-53.104-5.79Z"/><path fill="url(#A)" d="M1088.03 734.012c-9.02 0-18.12-.171-27.3-.512-85.599-2.494-143.124-25.532-175.846-70.427-28.635-39.272-34.527-88.331-40.095-135.776-4.155-34.862-8.086-67.787-21.228-92.206-34.159-70.972-65.533-91.46-86.294-105.01-13.699-8.908-21.963-14.331-21.907-29.14-.758-18.929 51.232-49.282 118.492-69.124 39.215-12.248 70.166-8.395 94.936-5.289a245.437 245.437 0 0 0 26.73 2.406h4.199c48.313.723 52.253.779 143.933-19.442 25.75-5.701 62.66-8.651 101.25-8.128 44.39.624 89.03 5.567 129.09 14.475 47.6 10.511 87.39 25.988 118.23 46.009 35.97 23.382 59.03 52.522 68.46 86.705a239.992 239.992 0 0 1 1.35 118.495c-9.4 39.673-28.09 77.241-55.56 111.658-38.89 48.77-94.06 88.598-159.57 115.322-65.17 26.567-138.69 39.984-218.87 39.984ZM888.982 225.159a180.172 180.172 0 0 0-54.573 8.34c-65.378 19.307-117.969 49.538-117.245 67.409-.056 13.885 7.908 19.085 21.106 27.703 19.657 12.827 52.546 34.306 86.872 105.679 13.287 24.685 17.241 57.766 21.418 92.796 5.624 47.222 11.449 96.047 39.805 134.952 32.388 44.427 89.468 67.231 174.495 69.703 90.6 3.34 173.18-9.877 245.43-39.328 65.24-26.59 120.18-66.273 158.87-114.754 27.31-34.216 45.89-71.551 55.23-110.968a238.332 238.332 0 0 0-1.34-117.637c-9.33-33.749-32.12-62.588-67.72-85.737-30.67-19.897-70.25-35.297-117.65-45.763-39.95-8.819-84.47-13.807-128.74-14.475-38.46-.535-75.22 2.416-100.85 8.084-91.87 20.265-95.78 20.209-144.329 19.485l-4.199-.067c-8.397-.089-17.419-1.213-26.964-2.405-11.772-1.369-24.936-3.017-39.616-3.017Z"/><path fill="url(#B)" d="M1098.49 695.141c-4.93 0-9.89-.055-14.88-.167-166.438-1.837-183.189-90.703-197.969-169.079-5.869-31.177-11.404-60.539-25.716-82.675-33.858-60.483-63.707-80.281-83.453-93.375-14.134-9.375-22.665-15.043-22.888-29.563-.635-9.186 9.055-22.035 26.596-35.218 18.633-13.997 43.849-26.724 71.024-35.899 35.952-13.116 63.117-11.234 87.084-9.575 6.36.434 12.363.857 18.199.957 8.788.19 16.439.524 23.188.824 31.185 1.359 50.005 2.227 119.515-12.125 44.33-9.186 128.42-11.525 208.27 5.055 43.23 8.974 79.41 22.336 107.56 39.706 32.88 20.298 54.16 45.83 63.24 75.882a214.004 214.004 0 0 1 3.34 105.39c-7.64 35.419-23.57 69.035-47.34 99.855-33.15 43.002-80.58 78.444-137.12 102.506-58.57 24.897-125.35 37.501-198.65 37.501ZM912.171 240.013a170.428 170.428 0 0 0-60.421 10.656c-58.372 19.652-97.709 52.41-96.529 69.513.212 13.707 8.476 19.196 22.164 28.271 19.88 13.184 49.918 33.114 83.943 93.887 14.479 22.37 20.048 51.932 25.917 83.221 7.485 39.717 15.225 80.77 41.81 112.66 30.239 36.277 80.805 54.315 154.575 55.128 78.93 1.803 150.56-10.723 212.91-37.246 56.29-23.939 103.48-59.214 136.47-101.993 23.62-30.654 39.44-64.024 47.03-99.199a212.608 212.608 0 0 0-3.34-104.598c-11.66-38.571-50.54-89.746-169.57-114.453-79.63-16.535-163.43-14.208-207.6-5.056-69.71 14.353-88.61 13.529-119.921 12.159-6.75-.3-14.39-.634-23.155-.823-5.87-.101-11.906-.524-18.288-.958-8.197-.568-16.796-1.169-25.995-1.169Z"/><path fill="url(#C)" d="M1101.13 656.482c-60.3 0-103.021-13.573-130.464-41.432-24.959-25.343-34.526-58.925-43.77-91.416-7.707-27.068-14.98-52.644-30.539-72.375-33.134-49.917-61.368-68.823-80.046-81.283-14.913-10.021-23.912-16.011-24.435-30.386-1.894-19.375 30.516-54.794 76.737-73.11 35.64-15.734 61.256-15.077 86.06-14.475l2.806.078c11.94.367 21.941 1.336 31.609 2.227 25.912 2.516 50.392 4.888 105.682-5.501 40.27-7.638 115.72-9.709 186.19 3.786 59.39 11.368 134.47 37.679 154.9 98.463 18.93 59.938 6.68 125.699-33.68 180.437-27.46 37.279-67.13 68.289-114.72 89.668-52.03 23.382-112.12 35.23-178.62 35.23h-2.36l-5.35.089ZM939.726 253.263c-20.248 0-42.2 2.071-70.534 14.564-49.417 19.586-77.461 54.916-75.824 71.629.501 13.662 9.266 19.53 23.767 29.24 18.789 12.582 47.168 31.589 80.436 81.706 15.703 19.897 23.021 45.652 30.773 72.82 9.188 32.291 18.699 65.695 43.436 90.781 27.944 28.371 72 41.744 134.76 40.953h2.36c66.32 0 126.18-11.803 178.02-35.096 47.35-21.29 86.87-52.133 114.12-89.2 19.96-27.09 33.02-56.53 38.83-87.496a186.863 186.863 0 0 0-5.36-91.582c-20.19-60.127-94.77-86.171-153.76-97.462-70.28-13.45-145.49-11.391-185.63-3.786-55.5 10.422-80.08 8.04-106.11 5.568-9.645-.936-19.614-1.904-31.508-2.227l-2.807-.067a332.97 332.97 0 0 0-14.969-.345Z"/><path fill="url(#D)" d="M1113.29 618.313c-44.1 0-76.9-9.208-99.93-28.004-23.036-18.795-34.163-44.805-44.944-69.981-9.244-21.557-18.8-43.837-35.64-60.906-31.697-39.228-58.149-56.898-75.646-68.601-16.26-10.934-26.061-17.47-26.975-31.945-2.305-18.328 18.288-56.787 55.855-75.092 26.463-14.921 48.147-20.933 72.449-20.098 12.898.534 24.068 2.316 35.897 4.197 24.994 3.964 50.834 8.073 95.974.646 36.44-6.079 103.33-7.883 164.1 2.506 52.66 9.007 119.53 30.431 139 81.349 18.16 51.331 9.68 108.107-23.27 155.774-21.79 31.544-53.74 58.089-92.44 76.829-42.76 20.677-92.69 31.778-148.41 32.992-5.47.223-10.81.334-16.02.334ZM954.093 264.966c-22.275 0-42.768 6.102-67.448 20.043-37.066 18.116-57.392 55.773-55.131 73.744.847 13.841 9.924 19.898 26.385 30.899 17.575 11.747 44.115 29.484 75.902 68.823 16.973 17.203 26.585 39.617 35.874 61.241 10.747 25.075 21.874 50.996 44.545 69.502 25.49 20.789 63.13 29.718 115.11 27.313 55.54-1.202 105.28-12.248 147.86-32.847 38.44-18.595 70.17-44.984 91.86-76.328 32.7-47.311 41.14-103.641 23.13-154.538-19.25-50.295-85.65-71.517-137.95-80.47-60.61-10.355-127.33-8.562-163.66-2.505-45.35 7.471-71.28 3.341-96.404-.646-11.783-1.87-22.921-3.641-35.74-4.175a188.906 188.906 0 0 0-4.333-.056Z"/><path fill="url(#E)" d="M1124.83 580.789c-71.07 0-92.51-31.957-115.06-65.583-11.137-16.591-22.631-33.738-40.551-47.768-28.958-28.293-52.135-43.425-69.053-54.504-19.568-12.76-30.35-19.786-31.686-34.774-1.537-10.021.835-24.897 6.204-38.793 6.493-16.802 16.706-30.386 28.745-38.247 19.235-15.221 35.641-26.801 56.067-25.866 12.897.713 25.404 3.507 38.647 6.458 23.897 5.345 50.987 11.391 87.807 6.469 25.51-3.485 84.11-7.148 142.02 1.225 30.07 4.365 55.54 11.358 75.53 20.8 23.61 11.134 39.62 25.765 47.58 43.425 17.54 42.79 12.92 90.669-12.66 131.389-16.19 25.776-40.48 47.878-70.25 63.79-32.92 17.648-71.9 27.937-115.83 30.598-9.98.935-19.1 1.381-27.51 1.381Zm-167.696-304.31c-19 0-34.671 11.135-53.025 25.688-27.532 17.971-37.055 59.013-34.437 75.893 1.281 14.42 11.883 21.334 31.118 33.883 17.007 11.135 40.306 26.278 69.242 54.615 18.02 14.108 29.581 31.333 40.758 48.002 12.75 18.995 24.79 36.944 45.36 49.259 23.17 13.863 53.68 18.439 96 14.386 43.82-2.639 82.63-12.894 115.39-30.453 29.58-15.856 53.71-37.757 69.78-63.356 25.38-40.374 29.95-87.852 12.58-130.275-7.8-17.348-23.64-31.756-46.98-42.78-19.88-9.397-45.17-16.356-75.18-20.699-57.77-8.351-116.23-4.699-141.67-1.225-37.04 4.955-64.24-1.113-88.239-6.48-13.187-2.951-25.616-5.734-38.447-6.436-.757-.022-1.503-.022-2.25-.022Z"/><path fill="url(#F)" d="M433.994 186.946a59.559 59.559 0 0 1-10.358-.925c-18.388-3.262-34.337-14.697-48.838-26.567-10.291-8.429-34.159-7.015-57.236-5.634-22.898 1.358-44.55 2.639-49.974-6.581-2.684-4.531-1.292-11.001 4.255-19.775 42.423-67.142 124.74-114.007 186.219-141.51 69.342-30.988 140.633-49.928 175.204-52.611 44.026-3.418 90.503-.735 95.103 12.983 1.682 5.022-2.406 10.734-12.151 16.98C679.464-13.2 532.316 118.078 488 160.868c-18.11 17.47-35.874 26.078-54.006 26.078Zm-90.86-36.288c13.944 0 26.129 1.514 33.023 7.148 14.278 11.692 29.948 22.949 47.891 26.122 21.05 3.73 41.487-4.309 62.492-24.585 44.328-42.846 191.721-174.29 228.52-197.852 8.687-5.567 12.585-10.566 11.271-14.475-3.553-10.578-42.623-15.432-92.898-11.524-34.393 2.672-105.372 21.545-174.491 52.433-61.256 27.38-143.15 74.012-185.284 140.697-5 7.917-6.426 13.807-4.221 17.526 4.778 8.106 25.772 6.859 48.003 5.568 8.687-.557 17.497-1.058 25.694-1.058Z"/><path fill="url(#G)" d="M438.663 176.59a55.498 55.498 0 0 1-9.645-.857c-16.962-3.029-31.809-13.651-45.341-24.663-9.589-7.794-31.808-6.447-53.293-5.111-21.306 1.314-41.431 2.561-46.51-6.002-2.495-4.209-1.214-10.199 3.921-18.349C327.166 59.12 403.625 15.505 460.86-10.082c64.508-28.839 130.754-46.431 162.931-48.903 40.852-3.151 83.976-.613 88.242 12.148 1.57 4.687-2.228 10.02-11.305 15.81C666.625-9.18 529.879 112.712 488.704 152.44c-16.784 16.19-33.246 24.151-50.041 24.151Zm-84.055-33.671c12.82 0 23.991 1.403 30.35 6.581 27.242 22.202 59.875 42.456 102.343 1.492 41.208-39.773 178.144-161.786 212.347-183.71 8.075-5.178 11.694-9.832 10.48-13.473-3.341-9.843-39.538-14.375-86.181-10.779-31.965 2.45-98.01 20.042-162.263 48.736-56.968 25.465-133.082 68.857-172.185 130.922-4.622 7.337-5.937 12.804-3.887 16.234 4.455 7.505 23.968 6.302 44.65 5.022 8.242-.513 16.595-1.025 24.346-1.025Z"/><path fill="url(#H)" d="M443.326 166.246a49.758 49.758 0 0 1-8.91-.812c-16.295-2.929-30.139-13.284-41.833-22.749-8.91-7.204-29.459-5.879-49.361-4.587-20.571 1.325-38.336 2.472-43.036-5.423-2.305-3.874-1.113-9.397 3.587-16.913 36.286-57.845 106.986-98.197 159.89-121.869 59.663-26.723 120.942-42.946 150.646-45.206 37.667-2.873 77.45-.49 81.392 11.312 1.459 4.343-2.06 9.276-10.469 14.654C653.724-5.171 527.414 107.344 489.39 143.977c-15.447 14.932-30.606 22.269-46.064 22.269Zm-77.25-31.043c11.683 0 21.84 1.303 27.665 6.013 11.517 9.319 25.127 19.508 40.975 22.369 17.954 3.229 35.406-3.619 53.371-20.933C526.144 105.908 652.622-6.708 684.219-26.94c7.473-4.776 10.825-9.085 9.7-12.46-3.051-9.085-36.464-13.36-79.466-10.02-29.536 2.226-90.548 18.439-150.022 45.05-52.669 23.55-123.025 63.724-159.055 121.134-4.254 6.759-5.446 11.792-3.575 14.943 4.121 6.903 22.186 5.745 41.298 4.454 7.774-.457 15.671-.958 22.977-.958Z"/><path fill="url(#I)" d="M447.994 155.902a46.034 46.034 0 0 1-8.242-.757c-14.779-2.684-27.531-12.17-38.313-20.844-8.197-6.592-27.13-5.311-45.429-4.064-18.934 1.28-35.24 2.394-39.572-4.844-2.116-3.541-1.058-8.607 3.252-15.488 33.268-53.19 98.177-90.29 146.781-112.037 54.819-24.496 111.097-39.472 138.362-41.51 34.526-2.594 70.923-.367 74.543 10.478 1.336 4.008-1.905 8.54-9.623 13.495-28.957 18.506-144.788 121.646-179.659 155.25-14.134 13.618-27.977 20.321-42.1 20.321Zm-70.456-28.427c10.548 0 19.714 1.203 25.004 5.456 10.614 8.541 23.155 17.816 37.522 20.488 16.417 2.984 32.377-3.262 48.816-19.107 34.905-33.627 150.924-136.9 179.915-155.462 6.872-4.454 9.946-8.362 8.91-11.457-2.784-8.34-33.412-12.248-72.75-9.287-27.098 2.038-83.13 16.892-137.771 41.366-48.37 21.656-112.968 58.557-146.001 111.346-3.876 6.18-4.957 10.778-3.241 13.651 3.786 6.313 20.381 5.189 37.945 3.997 7.406-.478 14.791-.991 21.651-.991Z"/><path fill="url(#J)" d="M452.663 145.558a41.283 41.283 0 0 1-7.54-.702c-13.265-2.438-24.915-11.056-34.805-18.928-7.495-5.991-24.747-4.744-41.453-3.552-17.241 1.236-32.132 2.316-36.097-4.265-1.938-3.207-.98-7.794 2.918-14.063 30.227-48.536 89.345-82.396 133.65-102.216 49.885-22.403 101.195-36.01 126.01-37.813 31.329-2.316 64.408-.234 67.704 9.654 1.214 3.663-1.737 7.794-8.787 12.326C627.934 2.845 522.562 96.61 490.798 127.151c-12.786 12.371-25.36 18.406-38.135 18.406Zm-63.684-25.799c9.433 0 17.597 1.113 22.353 4.877 22.063 17.604 46.276 32.201 78.341 1.347C521.448 95.407 626.987 1.52 653.383-15.371c6.259-3.997 9.066-7.616 8.119-10.444-2.528-7.594-30.294-11.135-66.034-8.54-24.669 1.825-75.735 15.343-125.531 37.668-44.071 19.753-102.91 53.446-132.915 101.604-3.497 5.567-4.455 9.765-2.907 12.359 3.453 5.712 18.578 4.632 34.594 3.485 6.838-.501 13.866-1.002 20.27-1.002Z"/><path fill="url(#K)" d="M457.33 135.203a37.414 37.414 0 0 1-6.827-.635c-11.75-2.227-21.907-9.62-31.307-17.036-6.794-5.367-23.133-4.12-37.556-3.006-15.593 1.191-29.036 2.227-32.633-3.686-1.749-2.884-.902-7.015 2.584-12.638 27.175-43.892 80.513-74.468 120.485-92.417 45.152-20.254 91.417-32.491 113.792-34.117 28.145-2.037 57.915-.111 60.855 8.819 1.114 3.34-1.57 7.082-7.952 11.135C615.004 6.864 520.079 91.242 491.5 118.722c-11.494 11.046-22.731 16.48-34.17 16.48Zm-56.923-23.16c8.308 0 15.492.968 19.724 4.309 9.244 7.304 19.223 14.62 30.639 16.702 13.365 2.483 26.296-2.572 39.694-15.455C519.065 90.141 614.169 5.64 637.958-9.581c5.647-3.619 8.186-6.881 7.34-9.442-2.228-6.837-27.231-10.122-59.318-7.794-22.209 1.614-68.296 13.795-113.291 33.982-39.772 17.816-92.853 48.258-119.817 91.828-3.119 5.022-3.988 8.752-2.584 11.068 3.118 5.122 16.773 4.075 31.185 2.973 6.471-.501 13.008-.991 18.934-.991Z"/><path fill="url(#L)" d="M461.994 124.859c-2.056 0-4.107-.194-6.126-.579-10.235-1.949-18.933-8.273-27.843-15.132-6.104-4.755-20.727-3.552-33.636-2.483-13.91 1.113-25.939 2.138-29.158-3.107-1.559-2.538-.824-6.213 2.228-11.212 24.113-39.239 71.67-66.563 107.321-82.575 40.318-18.105 81.582-28.95 101.518-30.409 24.97-1.77 51.355 0 53.995 7.984.991 2.984-1.404 6.347-7.106 10.021-21.161 13.518-105.65 88.52-131.077 112.939-10.08 9.754-20.014 14.553-30.116 14.553Zm-50.197-20.544c7.206 0 13.365.869 17.119 3.753 14.824 11.558 35.105 27.391 62.37 1.247C516.735 84.819 601.38 9.76 622.563-3.802c5.046-3.229 7.318-6.135 6.56-8.429-2.027-6.09-24.146-9.052-52.613-7.037-19.803 1.392-60.878 12.248-101.04 30.286-35.517 15.934-82.829 43.102-106.764 82.04-2.74 4.454-3.497 7.795-2.227 9.788 2.784 4.52 14.969 3.518 27.844 2.46 5.969-.489 12.006-.991 17.474-.991Z"/><path fill="url(#M)" d="M466.639 114.47c-11.817 0-21.64-7.538-29.681-13.707-5.402-4.142-18.31-2.984-29.693-1.96-12.251 1.114-22.843 2.061-25.694-2.527-1.37-2.227-.746-5.411 1.927-9.776 21.061-34.595 62.838-58.657 94.179-72.798 35.473-15.967 71.736-25.521 89.222-26.724 21.807-1.492 44.851.134 47.156 7.149.88 2.639-1.236 5.623-6.27 8.84-18.544 11.915-92.608 77.543-114.883 98.899-9.679 9.275-18.411 12.604-26.263 12.604Zm-43.436-17.882c6.114 0 11.371.746 14.557 3.196 13.743 10.544 30.862 23.683 54.329 1.191 22.275-21.379 96.484-87.095 115.072-98.987 4.455-2.84 6.427-5.411 5.77-7.427-1.771-5.345-21.073-7.995-45.898-6.29-17.386 1.18-53.46 10.7-88.8 26.6-31.185 14.03-72.739 37.947-93.644 72.264-2.361 3.885-3.007 6.68-1.915 8.495 2.439 3.93 13.164 2.962 24.502 1.949 5.446-.49 11.004-.991 15.982-.991h.045Z"/><path fill="url(#N)" d="M471.328 104.16c-9.834 0-18.109-6.225-25.326-11.647l-.179-.134c-4.7-3.53-15.893-2.405-25.772-1.425-10.591 1.058-19.735 1.97-22.275-1.949-1.191-1.881-.668-4.62 1.593-8.362 18.098-29.94 54.139-50.752 81.114-62.933 30.629-13.807 61.892-22.024 76.938-23.004 18.633-1.225 38.324.256 40.307 6.302.757 2.316-1.114 4.9-5.435 7.694-15.938 10.188-79.566 66.44-98.69 84.735-8.241 7.872-15.592 10.723-22.275 10.723Zm-36.854-15.31c5.046 0 9.356.645 12.029 2.638l.178.134c12.396 9.308 26.441 19.864 46.154 1.013 19.156-18.305 82.874-74.602 98.856-84.868 3.832-2.45 5.569-4.665 4.99-6.414-1.515-4.598-17.998-6.925-39.182-5.567-14.957.969-46.053 9.153-76.57 22.915-26.875 12.137-62.66 32.858-80.535 62.51-1.994 3.34-2.529 5.723-1.604 7.204 2.116 3.34 11.806 2.372 21.161 1.436 4.99-.434 10.046-1.002 14.523-1.002Z"/><path fill="url(#O)" d="M476.028 93.77c-7.93 0-14.623-4.887-20.459-9.163l-.847-.612c-3.998-2.907-13.476-1.838-21.829-.891-8.91 1.013-16.706 1.882-18.756-1.381-1.002-1.548-.59-3.82 1.259-6.937C443.028 28.11 525.512 3.736 547.932 2.411c7.521-.564 15.079-.38 22.565.546 6.482.957 10.135 2.616 10.892 4.921.646 1.97-.902 4.164-4.6 6.525-13.331 8.496-66.479 55.373-82.495 70.56-6.761 6.492-12.808 8.808-18.266 8.808Zm-30.316-12.66c3.987 0 7.395.524 9.556 2.094l.835.612c10.024 7.371 21.507 15.722 37.489.49 15.982-15.232 69.264-62.209 82.651-70.75 3.219-2.07 4.678-3.93 4.199-5.41-1.258-3.853-14.924-5.869-32.477-4.8-22.275 1.359-104.313 25.61-131.767 71.941-1.615 2.728-2.05 4.721-1.27 5.913 1.782 2.75 9.935 1.826 17.82.935 4.3-.576 8.627-.918 12.964-1.024Z"/><path fill="url(#P)" d="M480.694 83.482c-5.925 0-10.97-3.552-15.592-6.858l-1.437-1.014c-3.341-2.293-11.06-1.27-17.909-.356-7.262.969-13.543 1.793-15.281-.802-.813-1.225-.512-3.028.925-5.511 22.119-38.304 88.922-57.9 107.12-58.892 11.383-.634 25.182.212 26.608 4.633.523 1.625-.746 3.44-3.765 5.366-10.736 6.86-53.46 44.36-66.312 56.53-5.402 5.045-10.113 6.904-14.357 6.904Zm-23.756-10.121c2.963 0 5.491.4 7.15 1.559l1.448 1.013c8.153 5.757 16.573 11.703 28.88 0 12.852-12.248 55.687-49.75 66.435-56.63 1.827-1.114 3.898-2.873 3.419-4.399-1.002-3.106-11.839-4.81-25.761-4.053-18.087.991-84.467 20.443-106.43 58.48-1.247 2.148-1.57 3.707-.958 4.62 1.448 2.16 8.064 1.28 14.479.434a91.41 91.41 0 0 1 11.338-1.024Z"/><path fill="url(#Q)" d="M485.36 73.16c-4.054 0-7.518-2.338-10.926-4.642-.646-.435-1.292-.869-1.949-1.292-2.606-1.681-8.643-.69-13.967.19-5.568.912-10.458 1.714-11.817-.224-.634-.901-.445-2.226.591-4.108 8.91-15.99 27.509-27.024 41.587-33.404 15.938-7.293 32.555-11.58 40.095-11.914 8.453-.368 18.7.4 19.769 3.797.412 1.303-.579 2.717-2.929 4.22-8.119 5.177-40.418 33.303-50.119 42.423-3.92 3.63-7.295 4.955-10.335 4.955Zm-17.375-7.57a9.134 9.134 0 0 1 4.867 1.035c.657.423 1.303.857 1.96 1.302 6.004 4.053 11.673 7.884 20.371-.3 9.712-9.13 42.077-37.313 50.219-42.501 1.414-.902 3.007-2.227 2.639-3.396-.757-2.405-8.598-3.764-19.056-3.34-13.365.59-64.876 15.766-81.092 44.994-.869 1.582-1.114 2.706-.635 3.34 1.114 1.57 6.204.736 11.138-.077a64.905 64.905 0 0 1 9.589-1.058Z"/><path fill="url(#R)" d="M-1.715 382.893a6.257 6.257 0 0 1-3.587-.89c-1.626-1.114-2.16-3.118-1.581-5.913 2.227-10.845 24.402-47.879 52.625-88.131 46.777-66.674 75.657-94.343 85.892-103.151 44.762-38.492 87.73-63.412 109.482-63.467h.067c9.511 0 10.513 8.239 11.571 16.969 1.437 11.78 3.063 25.153 22.52 28.95 16.707 3.24 38.068 3.285 56.935 3.34 24.18.056 43.27.089 46.165 6.681a6.272 6.272 0 0 1 .056 5.289c-3.542 7.939-24.191 14.687-69.442 29.462-8.064 2.628-17.197 5.568-26.987 8.852-31.274 10.356-92.886 49.917-152.472 88.187-70.411 45.117-116.275 73.822-131.244 73.822Zm242.898-259.437h-.056c-24.191.089-71.715 31.701-108.034 62.989-21.495 18.495-52.68 55.94-85.536 102.75-28.078 40.007-50.063 76.74-52.28 87.329-.59 2.829.38 3.486.691 3.708 3.898 2.673 19.1-3.585 45.185-18.617 24.146-13.907 54.808-33.604 87.273-54.448 59.697-38.337 121.399-77.943 152.952-88.42 9.801-3.241 18.934-6.225 26.997-8.908 41.911-13.685 64.999-21.234 68.15-28.304a4.138 4.138 0 0 0-.055-3.552c-2.328-5.267-22.676-5.312-44.205-5.356-18.934 0-40.463-.078-57.336-3.341-21.005-4.086-22.798-18.928-24.246-30.787-1.225-9.587-2.25-15.043-9.5-15.043Z"/><path fill="url(#S)" d="M11.573 369.031a6.167 6.167 0 0 1-3.464-.846c-1.515-1.014-2.06-2.795-1.615-5.289.991-11.224 23.801-48.492 46.01-80.482 29.012-41.821 58.193-77.196 78.017-94.7a540.519 540.519 0 0 1 7.218-6.224c37.5-31.689 74.086-52.255 93.22-52.333h.067c8.765 0 9.779 7.505 10.848 15.444 1.448 10.689 3.085 22.793 20.905 26.222 15.348 2.94 35.028 2.962 52.347 2.973 22.085 0 39.549 0 42.556 5.857a5.71 5.71 0 0 1 .924 5.155c-2.494 7.46-22.965 14.397-67.816 29.585l-17.018 5.768c-28.078 9.564-83.709 45.006-137.504 79.289-66.791 42.535-110.35 69.581-124.695 69.581ZM231.07 131.117h-.067c-18.689.134-54.774 20.51-91.929 51.91a597.305 597.305 0 0 0-7.195 6.202C87.208 228.601 10.07 344.145 8.499 363.107v.1c-.457 2.495.457 3.107.746 3.341 3.787 2.538 18.344-3.396 43.27-17.626 23.02-13.139 52.023-31.623 82.74-51.22 53.905-34.339 109.637-69.858 137.938-79.49l17.018-5.779c42.868-14.475 64.386-21.79 66.558-28.304a3.748 3.748 0 0 0-.713-3.441l-.067-.122c-2.361-4.755-21.028-4.777-40.785-4.788-17.453 0-37.222 0-52.759-3.018-19.257-3.696-21.072-17.136-22.531-27.936-1.192-8.752-2.183-13.707-8.843-13.707Z"/><path fill="url(#T)" d="M24.846 355.168a6.009 6.009 0 0 1-3.342-.791c-1.403-.913-1.96-2.483-1.66-4.676-.367-6.871 9.78-29.574 39.394-72.843 19.725-28.828 48.515-66.608 70.166-86.238a680.475 680.475 0 0 1 6.482-5.746c33.413-28.95 66.825-47.778 84.913-47.99h.089c7.997 0 9.021 6.77 10.113 13.93 1.448 9.587 3.096 20.443 19.279 23.505 14.022 2.65 31.998 2.639 47.891 2.628 20.047 0 35.84 0 38.981 5.088 1.682 1.704 2.317 3.341 1.927 5.1-1.593 7.037-21.161 13.918-68.329 30.52l-5.034 1.77c-24.87 8.763-74.454 40.085-122.412 70.338-63.417 40.007-104.726 65.405-118.459 65.405Zm196.109-216.391h-.078c-17.698.2-50.553 18.851-83.676 47.512a526.454 526.454 0 0 0-6.449 5.723c-21.562 19.508-50.252 57.165-69.91 85.892-23.935 34.963-39.627 63.802-39.06 71.763v.201c-.322 2.226.524 2.728.803 2.917 3.686 2.394 17.63-3.207 41.42-16.702 21.919-12.393 49.295-29.674 78.274-47.968 48.048-30.331 97.732-61.697 122.791-70.527l5.046-1.77c43.781-15.4 65.711-23.127 67.103-29.162.156-.679.167-1.782-1.492-3.429l-.089-.09-.067-.122c-2.384-4.253-19.38-4.242-37.355-4.231-15.927 0-33.992 0-48.192-2.661-17.509-3.341-19.335-15.388-20.805-25.087-1.225-7.805-2.194-12.259-8.264-12.259Z"/><path fill="url(#U)" d="M38.078 341.305a6.066 6.066 0 0 1-3.196-.735 3.975 3.975 0 0 1-1.67-4.042c-3.932-17.025 60.41-110.5 95.125-143.013a559.502 559.502 0 0 1 5.736-5.245c29.893-26.623 59.251-43.325 76.614-43.592h.101c7.239 0 8.275 6.024 9.377 12.404 1.459 8.485 3.108 18.094 17.653 20.8 12.708 2.338 28.958 2.305 43.303 2.227 17.954 0 32.165-.067 35.317 4.331 2.35 1.659 3.341 3.34 3.152 5.1-.78 6.179-16.706 12.537-62.125 29.161-21.651 7.928-65.11 35.074-107.132 61.319-59.908 37.512-99.046 61.285-112.255 61.285Zm172.71-194.856h-.078c-16.707.267-46.321 17.203-75.468 43.146a1016.33 1016.33 0 0 0-5.714 5.234c-36.553 34.239-98.444 126.768-94.58 141.41v.367c-.178 1.681.402 2.227.847 2.528 8.353 5.222 64.252-29.696 113.603-60.506 42.111-26.289 85.647-53.446 107.454-61.474 38.503-14.164 60.354-22.392 61.034-27.792.145-1.114-.691-2.227-2.539-3.519l-.145-.1-.101-.156c-2.394-3.741-17.719-3.708-33.935-3.675-14.412 0-30.751.067-43.615-2.304-15.704-2.929-17.597-13.629-19.045-22.27-1.236-6.948-2.228-10.912-7.674-10.912l-.044.023Z"/><path fill="url(#V)" d="M51.299 327.42a5.83 5.83 0 0 1-2.963-.657 3.588 3.588 0 0 1-1.693-3.418c-1.626-3.585.167-10.934 5.335-21.835a311.865 311.865 0 0 1 20.794-35.764c17.664-26.868 39.571-54.727 54.573-69.325a653.714 653.714 0 0 1 5.001-4.765c25.817-23.84 51.99-38.849 68.306-39.194 6.56-.078 7.641 5.255 8.766 10.889 1.459 7.383 3.129 15.745 16.038 18.083 11.382 2.038 25.928 1.982 38.758 1.926 15.916-.066 28.534-.122 31.686 3.608 2.139 1.024 4.834 2.65 4.745 5.111-.189 5.022-11.204 10.611-51.233 25.988-18.41 7.082-55.598 30.064-91.561 52.188-55.376 34.061-93.822 57.154-106.552 57.165Zm149.387-173.333c-12.485.268-36.754 10.578-67.226 38.76a2571.562 2571.562 0 0 0-4.979 4.743c-14.868 14.476-36.686 42.312-54.295 69.035-19.246 29.273-28.957 50.273-25.94 56.175l.09.189v.223c-.067 1.402.479 1.892.902 2.137 8.22 4.866 61.1-27.736 107.755-56.497 37.69-23.238 73.285-45.184 91.829-52.333 33.168-12.738 50.03-20.042 50.208-24.496 0-1.113-1.292-2.394-3.976-3.674l-.189-.078-.123-.167c-2.428-3.24-16.071-3.185-30.517-3.118-12.897 0-27.52.111-39.048-1.948-14-2.539-15.86-11.87-17.352-19.375-1.281-6.102-2.205-9.576-7.139-9.576Z"/><path fill="url(#W)" d="M64.487 313.535a5.62 5.62 0 0 1-2.74-.568 3.23 3.23 0 0 1-1.692-2.794c-2.384-3.14-1.582-9.342 2.439-18.929 3.441-8.229 9.333-18.929 17.04-31.021 13.989-21.925 33.179-46.944 46.677-60.862 1.437-1.459 2.863-2.884 4.255-4.276 21.774-21.045 44.762-34.406 60.009-34.84 5.836-.078 6.905 4.52 8.041 9.364 1.47 6.28 3.141 13.361 14.412 15.377 10.024 1.737 22.899 1.648 34.225 1.57 13.911-.089 24.948-.167 28.078 2.906 4.622 1.492 6.683 3.073 6.805 5.122.178 4.532-10.124 10.277-40.852 22.804-15.114 6.168-44.461 23.984-75.524 42.846-45.051 27.38-87.797 53.301-101.173 53.301Zm126.177-151.743h-.1c-14.88.401-37.489 13.562-59.029 34.373l-4.232 4.253c-13.432 13.841-32.544 38.771-46.488 60.617-16.484 25.844-23.567 43.492-19.435 48.425l.167.2v.223a1.835 1.835 0 0 0 .936 1.782c8.197 4.453 58.249-25.9 102.465-52.712 31.107-18.929 60.498-36.744 75.735-42.946 20.838-8.496 40.095-16.958 39.916-21.367 0-1.292-2.049-2.573-5.936-3.809l-.2-.055-.134-.156c-2.461-2.728-14.479-2.65-27.098-2.561-11.382.078-24.29.167-34.526-1.592-12.251-2.149-14.111-10.122-15.592-16.513-1.281-5.233-2.194-8.162-6.449-8.162Z"/><path fill="url(#X)" d="M77.681 299.662a5.668 5.668 0 0 1-2.517-.468 3.03 3.03 0 0 1-1.693-2.227 7.298 7.298 0 0 1-2.372-5.155c-1.604-17.748 34.314-67.754 54.017-89.589l3.519-3.786c18.009-18.561 37.344-29.93 51.712-30.409 5.078-.089 6.159 3.764 7.317 7.795 1.47 5.188 3.152 11.067 12.786 12.682 8.754 1.436 19.891 1.325 29.715 1.225 11.917-.123 21.372-.223 24.435 2.227 6.326 1.247 9.267 2.806 9.523 5.077.334 2.962-3.208 7.382-31.107 19.642-11.728 5.155-34.526 18.728-58.595 33.103-41.164 24.574-83.631 49.883-96.74 49.883Zm102.822-130.275h-.134c-5.235.178-24.414 2.861-50.743 29.985l-3.508 3.775c-19.557 21.668-55.22 71.184-53.66 88.543a5.971 5.971 0 0 0 2.06 4.376l.234.167v.289a1.674 1.674 0 0 0 .98 1.436 4.73 4.73 0 0 0 2.06.379c12.508 0 58.483-27.413 95.894-49.716 24.135-14.386 46.934-27.981 58.751-33.181 13.231-5.813 30.761-14.019 30.294-18.239-.167-1.525-3.063-2.839-8.598-3.919h-.179l-.144-.123c-2.495-2.227-12.786-2.115-23.668-2.004-9.879.1-21.083.212-29.948-1.236-10.492-1.759-12.374-8.362-13.878-13.662-1.225-4.376-2.094-6.859-5.813-6.859v-.011Z"/><path fill="url(#Y)" d="M90.892 285.81a6.167 6.167 0 0 1-2.283-.368 2.895 2.895 0 0 1-1.693-1.681 7.434 7.434 0 0 1-3.776-5.256c-1.448-6.769 3.13-18.761 13.61-35.63a389.76 389.76 0 0 1 27.276-37.736 182.32 182.32 0 0 0 2.784-3.34c14.178-15.989 29.993-25.465 43.436-26.022 4.344-.089 5.436 3.007 6.616 6.28 1.47 4.098 3.141 8.741 11.138 10.021 7.439 1.114 16.884.991 25.215.858 9.946-.145 17.82-.267 20.805 1.57 8.565.835 12.596 2.383 13.064 4.999.468 2.617-1.693 6.547-22.197 16.491-8.108 3.941-22.765 12.504-39.727 22.414-44.339 25.91-82.173 47.4-94.268 47.4Zm79.499-108.752h-.145c-13.053.545-28.556 9.865-42.5 25.609a148.483 148.483 0 0 1-2.773 3.341 387.555 387.555 0 0 0-27.176 37.601c-10.157 16.346-14.802 28.349-13.454 34.707a6.191 6.191 0 0 0 3.341 4.532l.245.122.078.268a1.624 1.624 0 0 0 1.047 1.113c8.91 3.63 58.918-25.61 95.437-46.932 16.985-9.921 31.664-18.495 39.806-22.448 14.802-7.182 22.041-12.248 21.517-15.176-.334-1.904-4.455-3.252-12.106-3.998h-.156l-.134-.078c-2.528-1.714-11.137-1.581-20.236-1.447-8.376.134-17.82.267-25.416-.869-8.732-1.38-10.614-6.602-12.129-10.8-1.114-3.252-1.949-5.545-5.246-5.545Z"/><path fill="url(#Z)" d="M103.956 271.936a6.733 6.733 0 0 1-1.815-.212 3.04 3.04 0 0 1-1.76-1.213 8.58 8.58 0 0 1-5.791-5.49c-3.865-11.613 13.632-36.232 25.204-52.533l3.141-4.454c.701-.957 1.381-1.882 2.038-2.817 10.302-13.361 22.765-21.011 35.116-21.634 3.542-.09 4.689 2.226 5.892 4.71 1.47 3.017 3.141 6.424 9.523 7.326 6.136.824 13.899.657 20.749.501 7.662-.167 14.289-.312 17.14.924 11.138.212 16.896 1.804 17.664 4.888.769 3.085-3.898 7.561-14.345 13.362-3.341 1.871-8.464 4.81-14.356 8.217-29.693 17.181-83.787 48.425-98.4 48.425Zm56.334-87.218h-.167c-11.995.602-24.169 8.129-34.259 21.156a163.38 163.38 0 0 1-2.038 2.795c-.958 1.358-2.005 2.85-3.13 4.454-10.748 15.132-28.746 40.463-25.06 51.531a7.49 7.49 0 0 0 5.28 4.855l.222.066.101.201a1.844 1.844 0 0 0 1.214.868c.53.143 1.077.211 1.626.201 14.155 0 70.166-32.358 97.72-48.258 5.892-3.407 10.993-6.347 14.368-8.228 12.251-6.792 14.267-10.344 13.821-12.137-.445-1.793-3.686-3.819-16.706-4.053h-.111l-.112-.056c-2.55-1.18-9.456-1.024-16.762-.868-6.883.156-14.69.334-20.916-.512-6.972-.98-8.91-4.833-10.369-7.928-1.181-2.361-2.027-4.087-4.722-4.087Z"/><path fill="url(#aa)" d="M117.021 258.052a4.946 4.946 0 0 1-3.174-.824c-4.522-.868-7.473-2.806-8.787-5.757-3.341-7.571 4.455-20.265 11.416-31.477 2.004-3.24 3.898-6.291 5.357-8.997.479-.813.913-1.581 1.303-2.316 6.515-10.778 15.537-16.591 26.819-17.281 2.784-.1 3.954 1.47 5.19 3.118a10.015 10.015 0 0 0 7.886 4.687 126.51 126.51 0 0 0 16.372.134c5.747-.189 10.703-.356 13.365.301 9.901-.468 21.996 0 23.6 4.754.88 2.661-1.749 6.102-7.796 10.244-8.108 5.567-30.294 18.083-50.375 27.959-15.125 7.427-33.246 15.455-41.176 15.455Zm33.19-65.694H150c-10.926.679-19.691 6.324-26.018 16.791a58.397 58.397 0 0 1-1.292 2.316c-1.481 2.717-3.341 5.779-5.379 9.03-6.46 10.455-14.479 23.472-11.349 30.576 1.192 2.705 3.876 4.453 8.197 5.211h.145l.111.1c6.627 6.424 75.513-30.253 93.555-42.579 5.569-3.808 8.175-6.97 7.451-9.13-1.113-3.241-9.344-4.722-22.687-4.087h-.145c-2.539-.657-7.718-.479-13.197-.289-5.503.31-11.021.261-16.517-.145a10.93 10.93 0 0 1-8.554-5.066c-1.136-1.559-2.005-2.717-4.11-2.717v-.011Z"/><path fill="url(#ab)" d="M129.807 244.256a7.326 7.326 0 0 1-2.506-.356c-7.194-.601-11.549-2.383-13.309-5.456-2.439-4.231.323-10.021 3.241-16.145a66.174 66.174 0 0 0 3.508-8.351c.223-.624.401-1.236.569-1.815 2.773-8.318 8.319-12.182 18.521-12.95a7.052 7.052 0 0 1 4.455 1.47 11.876 11.876 0 0 0 6.226 2.115c3.709.19 8.119-.055 12.396-.289 3.542-.2 6.883-.39 9.289-.267 17.085-1.76 28.957 0 31.096 4.454.946 2.037 0 4.453-2.896 7.215-4.611 4.454-19.758 12.604-36.821 19.842-6.203 2.672-25.382 10.533-33.769 10.533Zm10.392-44.238h-.312c-9.935.746-15.091 4.32-17.82 12.349a25.95 25.95 0 0 1-.568 1.837 64.843 64.843 0 0 1-3.553 8.44c-2.818 5.923-5.48 11.524-3.263 15.366 1.615 2.817 5.78 4.453 12.708 5.044h.122c8.387 3.34 62.136-20.043 72.282-29.774 2.584-2.483 3.498-4.588 2.718-6.258-1.916-4.131-13.799-5.712-30.272-4.009h-.067c-2.361-.122-5.702.067-9.233.268-4.154.309-8.321.402-12.485.278a12.67 12.67 0 0 1-6.682-2.227 6.354 6.354 0 0 0-3.575-1.314Z"/><path fill="url(#ac)" d="M140.755 230.56c-12.875 0-18.41-.868-20.426-3.117-1.27-1.426-1.114-3.252-.813-5.568a21.648 21.648 0 0 0 0-6.257c-.445-2.628-.189-4.454.791-5.701 1.893-2.416 6.404-2.75 13.866-3.341 4.656-.345 10.447-.779 17.508-1.837 19.491-2.928 36.431-1.336 40.273 3.797a4.203 4.203 0 0 1 .368 4.576c-3.809 8.229-40.93 17.448-51.567 17.448Zm29.492-26.545c-6.183.037-12.354.529-18.465 1.47-7.084 1.114-12.898 1.503-17.564 1.849-7.273.545-11.661.868-13.365 3.028-.858 1.114-1.058 2.728-.657 5.144a22.255 22.255 0 0 1 0 6.458c-.245 2.227-.424 3.82.634 5 1.838 2.049 7.407 2.861 19.892 2.884 10.235 0 47.29-9.197 50.898-16.992a3.52 3.52 0 0 0 .431-1.962 3.519 3.519 0 0 0-.709-1.879c-2.395-3.24-10.425-5-21.095-5Z"/></g><defs><linearGradient id="C" x1="791.797" x2="1444.57" y1="454.668" y2="454.668" gradientUnits="userSpaceOnUse"><stop stop-color="#F86B00"/><stop offset="1" stop-color="#fff" stop-opacity=".17"/></linearGradient><linearGradient id="b" x1="-51.719" x2="598.765" y1="371.299" y2="371.299" gradientUnits="userSpaceOnUse"><stop stop-color="#F86B00"/><stop offset="1" stop-color="#fff" stop-opacity=".17"/></linearGradient><linearGradient id="d" x1="-8.664" x2="528.406" y1="380.987" y2="380.987" gradientUnits="userSpaceOnUse"><stop stop-color="#F86B00"/><stop offset="1" stop-color="#fff" stop-opacity=".17"/></linearGradient><linearGradient id="e" x1="12.824" x2="493.282" y1="385.766" y2="385.766" gradientUnits="userSpaceOnUse"><stop stop-color="#F86B00"/><stop offset="1" stop-color="#fff" stop-opacity=".17"/></linearGradient><linearGradient id="f" x1="34.328" x2="458.096" y1="390.524" y2="390.524" gradientUnits="userSpaceOnUse"><stop stop-color="#F86B00"/><stop offset="1" stop-color="#fff" stop-opacity=".17"/></linearGradient><linearGradient id="g" x1="55.797" x2="422.905" y1="395.241" y2="395.241" gradientUnits="userSpaceOnUse"><stop stop-color="#F86B00"/><stop offset="1" stop-color="#fff" stop-opacity=".17"/></linearGradient><linearGradient id="h" x1="77.324" x2="387.716" y1="400.039" y2="400.039" gradientUnits="userSpaceOnUse"><stop stop-color="#F86B00"/><stop offset="1" stop-color="#fff" stop-opacity=".17"/></linearGradient><linearGradient id="i" x1="98.781" x2="352.493" y1="404.739" y2="404.739" gradientUnits="userSpaceOnUse"><stop stop-color="#F86B00"/><stop offset="1" stop-color="#fff" stop-opacity=".17"/></linearGradient><linearGradient id="j" x1="120.242" x2="317.354" y1="409.367" y2="409.367" gradientUnits="userSpaceOnUse"><stop stop-color="#F86B00"/><stop offset="1" stop-color="#fff" stop-opacity=".17"/></linearGradient><linearGradient id="k" x1="140.465" x2="282.203" y1="413.663" y2="413.663" gradientUnits="userSpaceOnUse"><stop stop-color="#F86B00"/><stop offset="1" stop-color="#fff" stop-opacity=".17"/></linearGradient><linearGradient id="l" x1="475.297" x2="1046.13" y1="90.704" y2="90.704" gradientUnits="userSpaceOnUse"><stop stop-color="#F86B00"/><stop offset="1" stop-color="#fff" stop-opacity=".17"/></linearGradient><linearGradient id="m" x1="496.422" x2="1026.18" y1="87.547" y2="87.547" gradientUnits="userSpaceOnUse"><stop stop-color="#F86B00"/><stop offset="1" stop-color="#fff" stop-opacity=".17"/></linearGradient><linearGradient id="n" x1="517.547" x2="1006.42" y1="84.358" y2="84.358" gradientUnits="userSpaceOnUse"><stop stop-color="#F86B00"/><stop offset="1" stop-color="#fff" stop-opacity=".17"/></linearGradient><linearGradient id="o" x1="538.711" x2="986.925" y1="81.229" y2="81.229" gradientUnits="userSpaceOnUse"><stop stop-color="#F86B00"/><stop offset="1" stop-color="#fff" stop-opacity=".17"/></linearGradient><linearGradient id="p" x1="559.812" x2="967.736" y1="77.4" y2="77.4" gradientUnits="userSpaceOnUse"><stop stop-color="#F86B00"/><stop offset="1" stop-color="#fff" stop-opacity=".17"/></linearGradient><linearGradient id="q" x1="580.852" x2="949.043" y1="73.246" y2="73.246" gradientUnits="userSpaceOnUse"><stop stop-color="#F86B00"/><stop offset="1" stop-color="#fff" stop-opacity=".17"/></linearGradient><linearGradient id="r" x1="601.781" x2="930.872" y1="68.855" y2="68.855" gradientUnits="userSpaceOnUse"><stop stop-color="#F86B00"/><stop offset="1" stop-color="#fff" stop-opacity=".17"/></linearGradient><linearGradient id="s" x1="622.531" x2="913.533" y1="64.268" y2="64.268" gradientUnits="userSpaceOnUse"><stop stop-color="#F86B00"/><stop offset="1" stop-color="#fff" stop-opacity=".17"/></linearGradient><linearGradient id="t" x1="642.898" x2="897.633" y1="59.479" y2="59.479" gradientUnits="userSpaceOnUse"><stop stop-color="#F86B00"/><stop offset="1" stop-color="#fff" stop-opacity=".17"/></linearGradient><linearGradient id="u" x1="662.125" x2="883.801" y1="57.519" y2="57.519" gradientUnits="userSpaceOnUse"><stop stop-color="#F86B00"/><stop offset="1" stop-color="#fff" stop-opacity=".17"/></linearGradient><linearGradient id="v" x1="676.68" x2="873.772" y1="57.045" y2="57.045" gradientUnits="userSpaceOnUse"><stop stop-color="#F86B00"/><stop offset="1" stop-color="#fff" stop-opacity=".17"/></linearGradient><linearGradient id="w" x1="676.977" x2="870.801" y1="55.96" y2="55.96" gradientUnits="userSpaceOnUse"><stop stop-color="#F86B00"/><stop offset="1" stop-color="#fff" stop-opacity=".17"/></linearGradient><linearGradient id="x" x1="600.465" x2="1655.74" y1="503.848" y2="503.848" gradientUnits="userSpaceOnUse"><stop stop-color="#F86B00"/><stop offset="1" stop-color="#fff" stop-opacity=".17"/></linearGradient><linearGradient id="y" x1="638.734" x2="1613.36" y1="493.972" y2="493.972" gradientUnits="userSpaceOnUse"><stop stop-color="#F86B00"/><stop offset="1" stop-color="#fff" stop-opacity=".17"/></linearGradient><linearGradient id="z" x1="677.031" x2="1571.04" y1="484.033" y2="484.033" gradientUnits="userSpaceOnUse"><stop stop-color="#F86B00"/><stop offset="1" stop-color="#fff" stop-opacity=".17"/></linearGradient><linearGradient id="A" x1="715.352" x2="1528.8" y1="474.155" y2="474.155" gradientUnits="userSpaceOnUse"><stop stop-color="#F86B00"/><stop offset="1" stop-color="#fff" stop-opacity=".17"/></linearGradient><linearGradient id="B" x1="753.555" x2="1486.63" y1="464.382" y2="464.382" gradientUnits="userSpaceOnUse"><stop stop-color="#F86B00"/><stop offset="1" stop-color="#fff" stop-opacity=".17"/></linearGradient><linearGradient id="c" x1="-30.156" x2="563.74" y1="376.122" y2="376.122" gradientUnits="userSpaceOnUse"><stop stop-color="#F86B00"/><stop offset="1" stop-color="#fff" stop-opacity=".17"/></linearGradient><linearGradient id="D" x1="829.98" x2="1402.8" y1="445.284" y2="445.284" gradientUnits="userSpaceOnUse"><stop stop-color="#F86B00"/><stop offset="1" stop-color="#fff" stop-opacity=".17"/></linearGradient><linearGradient id="E" x1="868.02" x2="1361.57" y1="431.722" y2="431.722" gradientUnits="userSpaceOnUse"><stop stop-color="#F86B00"/><stop offset="1" stop-color="#fff" stop-opacity=".17"/></linearGradient><linearGradient id="F" x1="266.266" x2="728.737" y1="62.582" y2="62.582" gradientUnits="userSpaceOnUse"><stop stop-color="#F86B00"/><stop offset="1" stop-color="#fff" stop-opacity=".17"/></linearGradient><linearGradient id="G" x1="282.641" x2="712.378" y1="61.078" y2="61.078" gradientUnits="userSpaceOnUse"><stop stop-color="#F86B00"/><stop offset="1" stop-color="#fff" stop-opacity=".17"/></linearGradient><linearGradient id="H" x1="299.047" x2="696.022" y1="59.581" y2="59.581" gradientUnits="userSpaceOnUse"><stop stop-color="#F86B00"/><stop offset="1" stop-color="#fff" stop-opacity=".17"/></linearGradient><linearGradient id="I" x1="315.383" x2="679.669" y1="58.084" y2="58.084" gradientUnits="userSpaceOnUse"><stop stop-color="#F86B00"/><stop offset="1" stop-color="#fff" stop-opacity=".17"/></linearGradient><linearGradient id="J" x1="331.797" x2="663.316" y1="56.583" y2="56.583" gradientUnits="userSpaceOnUse"><stop stop-color="#F86B00"/><stop offset="1" stop-color="#fff" stop-opacity=".17"/></linearGradient><linearGradient id="K" x1="348.125" x2="646.969" y1="55.069" y2="55.069" gradientUnits="userSpaceOnUse"><stop stop-color="#F86B00"/><stop offset="1" stop-color="#fff" stop-opacity=".17"/></linearGradient><linearGradient id="L" x1="364.437" x2="630.511" y1="53.579" y2="53.579" gradientUnits="userSpaceOnUse"><stop stop-color="#F86B00"/><stop offset="1" stop-color="#fff" stop-opacity=".17"/></linearGradient><linearGradient id="M" x1="380.867" x2="614.249" y1="52.031" y2="52.031" gradientUnits="userSpaceOnUse"><stop stop-color="#F86B00"/><stop offset="1" stop-color="#fff" stop-opacity=".17"/></linearGradient><linearGradient id="N" x1="397.156" x2="597.892" y1="50.574" y2="50.574" gradientUnits="userSpaceOnUse"><stop stop-color="#F86B00"/><stop offset="1" stop-color="#fff" stop-opacity=".17"/></linearGradient><linearGradient id="O" x1="413.605" x2="581.532" y1="49.049" y2="49.049" gradientUnits="userSpaceOnUse"><stop stop-color="#F86B00"/><stop offset="1" stop-color="#fff" stop-opacity=".17"/></linearGradient><linearGradient id="P" x1="430.031" x2="565.242" y1="47.57" y2="47.57" gradientUnits="userSpaceOnUse"><stop stop-color="#F86B00"/><stop offset="1" stop-color="#fff" stop-opacity=".17"/></linearGradient><linearGradient id="Q" x1="446.336" x2="548.834" y1="46.098" y2="46.098" gradientUnits="userSpaceOnUse"><stop stop-color="#F86B00"/><stop offset="1" stop-color="#fff" stop-opacity=".17"/></linearGradient><linearGradient id="R" x1="-7.109" x2="378.987" y1="255.312" y2="255.312" gradientUnits="userSpaceOnUse"><stop stop-color="#F86B00"/><stop offset="1" stop-color="#fff" stop-opacity=".17"/></linearGradient><linearGradient id="S" x1="6.344" x2="358.859" y1="252.024" y2="252.024" gradientUnits="userSpaceOnUse"><stop stop-color="#F86B00"/><stop offset="1" stop-color="#fff" stop-opacity=".17"/></linearGradient><linearGradient id="T" x1="19.766" x2="339.19" y1="248.693" y2="248.693" gradientUnits="userSpaceOnUse"><stop stop-color="#F86B00"/><stop offset="1" stop-color="#fff" stop-opacity=".17"/></linearGradient><linearGradient id="U" x1="33.039" x2="319.613" y1="245.393" y2="245.393" gradientUnits="userSpaceOnUse"><stop stop-color="#F86B00"/><stop offset="1" stop-color="#fff" stop-opacity=".17"/></linearGradient><linearGradient id="V" x1="46.063" x2="300.647" y1="242.077" y2="242.077" gradientUnits="userSpaceOnUse"><stop stop-color="#F86B00"/><stop offset="1" stop-color="#fff" stop-opacity=".17"/></linearGradient><linearGradient id="W" x1="58.719" x2="282.038" y1="238.762" y2="238.762" gradientUnits="userSpaceOnUse"><stop stop-color="#F86B00"/><stop offset="1" stop-color="#fff" stop-opacity=".17"/></linearGradient><linearGradient id="X" x1="71.047" x2="264.143" y1="235.453" y2="235.453" gradientUnits="userSpaceOnUse"><stop stop-color="#F86B00"/><stop offset="1" stop-color="#fff" stop-opacity=".17"/></linearGradient><linearGradient id="Y" x1="82.879" x2="247.138" y1="232.136" y2="232.136" gradientUnits="userSpaceOnUse"><stop stop-color="#F86B00"/><stop offset="1" stop-color="#fff" stop-opacity=".17"/></linearGradient><linearGradient id="Z" x1="94.043" x2="231.139" y1="228.836" y2="228.836" gradientUnits="userSpaceOnUse"><stop stop-color="#F86B00"/><stop offset="1" stop-color="#fff" stop-opacity=".17"/></linearGradient><linearGradient id="aa" x1="104.262" x2="216.534" y1="225.546" y2="225.546" gradientUnits="userSpaceOnUse"><stop stop-color="#F86B00"/><stop offset="1" stop-color="#fff" stop-opacity=".17"/></linearGradient><linearGradient id="ab" x1="113.055" x2="203.647" y1="222.271" y2="222.271" gradientUnits="userSpaceOnUse"><stop stop-color="#F86B00"/><stop offset="1" stop-color="#fff" stop-opacity=".17"/></linearGradient><linearGradient id="ac" x1="119.305" x2="192.831" y1="217.254" y2="217.253" gradientUnits="userSpaceOnUse"><stop stop-color="#F86B00"/><stop offset="1" stop-color="#fff" stop-opacity=".17"/></linearGradient><clipPath id="a"><path fill="#fff" d="M0 0h878v360H0z"/></clipPath></defs></svg>