<svg id="svg62" width="500px" height="170px" clip-rule="evenodd" fill-rule="evenodd" image-rendering="optimizeQuality" shape-rendering="geometricPrecision" text-rendering="geometricPrecision" version="1.1" viewBox="0 0 575 196" xml:space="preserve" xmlns="http://www.w3.org/2000/svg">
 <g id="Слой_x0020_1">
  
  <path id="path3" d="m95.2 1.96h385c119 0 120 192 0 192h-385c-120 0-119-192 0-192z"/>
  <g id="g7">
   <path id="path5" d="m91.2 0h393c121 0 122 196 0 196h-393c-122 0-121-196 0-196zm393 9.14h-393c-39.3 0-64.5 22.9-75.5 52.1-4.39 11.6-6.6 24.2-6.61 36.8 0 12.6 2.18 25.2 6.57 36.8 11 29.1 36.1 51.7 75.6 51.7h393c39.4 0 64.6-22.7 75.6-51.7 4.39-11.6 6.57-24.2 6.56-36.8 0-12.6-2.21-25.2-6.6-36.8-11-29.2-36.2-52.1-75.5-52.1z" fill="#FF8A00"/>
  </g>
  <g id="g11">
   <path id="path9" d="m92.9 22.4h390c93.5 0 94.2 151 0 151h-390c-94.2 0-93.5-151 0-151zm390 9.14h-390c-29.3 0-48.1 17-56.3 38.8-3.3 8.75-4.96 18.2-4.96 27.7-0.01 9.47 1.63 18.9 4.93 27.7 8.18 21.6 26.9 38.6 56.4 38.6h390c29.4 0 48.2-16.9 56.4-38.6 3.3-8.73 4.94-18.2 4.93-27.7 0-9.47-1.66-18.9-4.96-27.7-8.23-21.8-27-38.8-56.3-38.8z" fill="#fff"/>
  </g>
  <rect id="rect13" x="90.1" y="164" width="395" height="31.6" fill="#FF8A00"/>
  <path id="path15" d="m111 185c-1.2-1.06-1.8-2.72-1.8-5.01 0-2.28 0.6-3.95 1.8-5s2.97-1.58 5.29-1.58 4.08 0.53 5.28 1.58 1.8 2.72 1.8 5c0 2.29-0.6 3.95-1.8 5.01-1.2 1.05-2.96 1.57-5.28 1.57s-4.09-0.52-5.29-1.57zm2.41-8.15c-0.6 0.7-0.9 1.75-0.9 3.14 0 1.4 0.3 2.45 0.9 3.15s1.55 1.05 2.88 1.05c1.32 0 2.28-0.35 2.87-1.05s0.89-1.75 0.89-3.15c0-1.39-0.3-2.44-0.89-3.14-0.59-0.71-1.55-1.06-2.87-1.06-1.33 0-2.28 0.35-2.88 1.06z" fill="#282828" fill-rule="nonzero"/>
  <path id="1" d="m124 175v-0.82c0-0.24 0.08-0.44 0.24-0.6s0.36-0.24 0.6-0.24h11.2c0.24 0 0.44 0.08 0.6 0.24s0.24 0.36 0.24 0.6v0.82c0 0.24-0.08 0.44-0.24 0.59-0.16 0.16-0.36 0.24-0.6 0.24h-3.92v9.32c0 0.23-0.08 0.43-0.24 0.58-0.16 0.16-0.36 0.23-0.59 0.23h-1.66c-0.23 0-0.43-0.07-0.59-0.23-0.16-0.15-0.24-0.35-0.24-0.58v-9.32h-3.92c-0.24 0-0.44-0.08-0.6-0.24-0.16-0.15-0.24-0.35-0.24-0.59z" fill="#282828" fill-rule="nonzero"/>
  <path id="2" d="m144 177v-2.94c0-0.23 0.08-0.43 0.25-0.59 0.16-0.17 0.36-0.25 0.59-0.25h1.65c0.23 0 0.42 0.08 0.58 0.25 0.16 0.16 0.25 0.36 0.25 0.59v2.94c0 1.43 0.7 2.13 2.12 2.13h3.41v-5.07c0-0.23 0.08-0.43 0.25-0.59 0.16-0.17 0.36-0.25 0.59-0.25h1.63c0.25 0 0.45 0.08 0.61 0.25 0.16 0.16 0.24 0.36 0.24 0.59v11c0 0.22-0.09 0.42-0.25 0.58-0.17 0.16-0.37 0.24-0.6 0.24h-1.63c-0.23 0-0.43-0.07-0.59-0.23-0.17-0.15-0.25-0.35-0.25-0.58v-3.41h-3.41c-1.67 0-3-0.38-3.98-1.14-0.97-0.77-1.46-1.93-1.46-3.48z" fill="#282828" fill-rule="nonzero"/>
  <path id="3" d="m158 185v-11c0-0.23 0.08-0.42 0.24-0.58 0.17-0.16 0.37-0.24 0.59-0.24h10.2c0.23 0 0.43 0.08 0.59 0.25 0.16 0.16 0.24 0.36 0.24 0.59v0.82c0 0.23-0.08 0.43-0.24 0.59s-0.36 0.24-0.59 0.24h-7.66v2.56h6.6c0.23 0 0.42 0.08 0.58 0.24 0.16 0.17 0.25 0.36 0.25 0.59v0.83c0 0.23-0.09 0.42-0.25 0.58-0.16 0.17-0.35 0.25-0.58 0.25h-6.6v2.59h7.65c0.22 0 0.42 0.08 0.57 0.24 0.16 0.16 0.23 0.35 0.23 0.58v0.85c0 0.22-0.08 0.42-0.24 0.58-0.17 0.16-0.36 0.24-0.59 0.24h-10.1c-0.22 0-0.42-0.08-0.59-0.24-0.16-0.16-0.24-0.36-0.24-0.6z" fill="#282828" fill-rule="nonzero"/>
  <path id="4" d="m172 185v-11c0-0.23 0.07-0.43 0.23-0.59 0.16-0.17 0.36-0.25 0.58-0.25h6.72c3.54 0 5.32 1.64 5.32 4.91 0 3.26-1.77 4.9-5.32 4.9h-4.22v1.98c0 0.23-0.08 0.43-0.24 0.59s-0.35 0.24-0.58 0.24h-1.66c-0.23 0-0.42-0.08-0.59-0.24-0.16-0.16-0.24-0.36-0.24-0.58zm3.31-4.48h3.22c0.98 0 1.73-0.16 2.24-0.49 0.51-0.34 0.77-0.98 0.77-1.92 0-0.95-0.26-1.59-0.77-1.93-0.51-0.33-1.26-0.49-2.24-0.49h-3.22v4.83z" fill="#282828" fill-rule="nonzero"/>
  <path id="5" d="m185 175v-0.82c0-0.24 0.08-0.44 0.24-0.6s0.35-0.24 0.59-0.24h11.2c0.24 0 0.44 0.08 0.6 0.24s0.24 0.36 0.24 0.6v0.82c0 0.24-0.08 0.44-0.24 0.59-0.16 0.16-0.36 0.24-0.6 0.24h-3.92v9.32c0 0.23-0.08 0.43-0.25 0.58-0.16 0.16-0.35 0.23-0.58 0.23h-1.66c-0.23 0-0.43-0.07-0.59-0.23-0.16-0.15-0.24-0.35-0.24-0.58v-9.32h-3.93c-0.24 0-0.43-0.08-0.59-0.24-0.16-0.15-0.24-0.35-0.24-0.59z" fill="#282828" fill-rule="nonzero"/>
  <path id="6" d="m199 185v-11c0-0.23 0.08-0.42 0.25-0.58 0.16-0.16 0.36-0.24 0.59-0.24h10.1c0.23 0 0.43 0.08 0.59 0.25 0.16 0.16 0.24 0.36 0.24 0.59v0.82c0 0.23-0.08 0.43-0.24 0.59s-0.36 0.24-0.59 0.24h-7.66v2.56h6.6c0.23 0 0.43 0.08 0.58 0.24 0.17 0.17 0.25 0.36 0.25 0.59v0.83c0 0.23-0.08 0.42-0.25 0.58-0.15 0.17-0.35 0.25-0.58 0.25h-6.6v2.59h7.65c0.23 0 0.42 0.08 0.57 0.24 0.16 0.16 0.24 0.35 0.24 0.58v0.85c0 0.22-0.08 0.42-0.25 0.58s-0.36 0.24-0.59 0.24h-10.1c-0.23 0-0.43-0.08-0.59-0.24-0.17-0.16-0.25-0.36-0.25-0.6z" fill="#282828" fill-rule="nonzero"/>
  <path id="7" d="m212 186c-0.23 0-0.37-0.07-0.43-0.23-0.06-0.15-0.01-0.35 0.13-0.59l2.2-3.51c0.31-0.48 0.67-0.92 1.08-1.32 0.41-0.41 0.81-0.65 1.19-0.73-0.55-0.14-1-0.37-1.34-0.69-0.35-0.33-0.66-0.75-0.93-1.25l-1.92-3.46c-0.13-0.24-0.18-0.45-0.13-0.61 0.04-0.17 0.18-0.25 0.41-0.25h2.03c0.53 0 0.95 0.29 1.27 0.86l1.37 2.42c0.34 0.63 0.71 1.08 1.1 1.36 0.4 0.29 0.85 0.43 1.37 0.43h0.4v-4.21c0-0.23 0.08-0.43 0.24-0.6s0.35-0.26 0.58-0.26h1.67c0.23 0 0.42 0.09 0.58 0.26s0.24 0.37 0.24 0.6v4.21h0.4c0.52 0 0.97-0.14 1.36-0.42s0.76-0.74 1.11-1.37l1.37-2.42c0.31-0.57 0.73-0.85 1.26-0.86h2.04c0.23 0 0.37 0.08 0.41 0.25 0.04 0.16-0.01 0.37-0.14 0.61l-1.91 3.46c-0.27 0.5-0.58 0.92-0.92 1.25-0.35 0.32-0.8 0.55-1.36 0.69 0.39 0.08 0.79 0.33 1.2 0.73 0.4 0.41 0.77 0.85 1.08 1.32l2.19 3.51c0.15 0.24 0.19 0.44 0.13 0.59-0.06 0.16-0.2 0.23-0.42 0.23h-2.03c-0.23 0-0.47-0.08-0.74-0.24-0.26-0.16-0.46-0.36-0.6-0.58l-1.56-2.46c-0.37-0.6-0.74-1.05-1.12-1.35-0.37-0.3-0.82-0.45-1.35-0.45h-0.4v4.27c0 0.23-0.08 0.43-0.24 0.58-0.16 0.16-0.35 0.23-0.58 0.23h-1.67c-0.23 0-0.42-0.07-0.58-0.23-0.16-0.15-0.24-0.35-0.24-0.58v-4.27h-0.4c-0.53 0-0.98 0.15-1.35 0.45-0.38 0.3-0.75 0.75-1.12 1.35l-1.56 2.46c-0.14 0.22-0.34 0.42-0.61 0.58-0.26 0.16-0.5 0.24-0.73 0.24h-2.03z" fill="#282828" fill-rule="nonzero"/>
  <path id="8" d="m232 185 2.21-8.38c0.6-2.28 2.54-3.42 5.84-3.43h4.75c0.21 0 0.39 0.08 0.54 0.25 0.14 0.16 0.21 0.35 0.21 0.57v11c0 0.23-0.08 0.43-0.24 0.58-0.17 0.16-0.36 0.23-0.59 0.23h-1.66c-0.24 0-0.44-0.07-0.59-0.23-0.16-0.15-0.23-0.35-0.23-0.59v-2.22h-6.24l-0.59 2.22c-0.06 0.24-0.2 0.44-0.4 0.59-0.21 0.16-0.43 0.23-0.66 0.23h-1.74c-0.23 0-0.41-0.07-0.52-0.23-0.12-0.15-0.15-0.35-0.09-0.58zm4.67-4.72h5.57v-4.6h-2.51c-0.55 0-1.04 0.16-1.46 0.48s-0.71 0.75-0.85 1.29l-0.75 2.83z" fill="#282828" fill-rule="nonzero"/>
  <path id="9" d="m253 185v-0.85c0-0.23 0.08-0.42 0.24-0.58s0.35-0.24 0.58-0.24h0.68l1.64-6.66c0.56-2.31 2.47-3.46 5.72-3.47h4.76c0.23 0 0.42 0.08 0.58 0.24s0.24 0.35 0.24 0.58v11c0 0.23-0.08 0.43-0.24 0.58-0.16 0.16-0.35 0.23-0.58 0.23h-12.8c-0.23 0-0.43-0.08-0.59-0.24s-0.24-0.36-0.24-0.58zm4.91-1.67h6.22v-7.64h-2.62c-0.55 0-1.01 0.15-1.37 0.46-0.37 0.3-0.62 0.73-0.75 1.28l-1.48 5.9z" fill="#282828" fill-rule="nonzero"/>
  <path id="10" d="m271 185c-1.2-1.06-1.8-2.72-1.8-5.01 0-2.28 0.6-3.95 1.8-5 1.21-1.05 2.97-1.58 5.29-1.58s4.08 0.53 5.28 1.58 1.8 2.72 1.8 5c0 2.29-0.6 3.95-1.8 5.01-1.2 1.05-2.96 1.57-5.28 1.57s-4.08-0.52-5.29-1.57zm2.41-8.15c-0.6 0.7-0.89 1.75-0.89 3.14 0 1.4 0.29 2.45 0.89 3.15s1.56 1.05 2.88 1.05 2.28-0.35 2.87-1.05c0.6-0.7 0.89-1.75 0.89-3.15 0-1.39-0.29-2.44-0.89-3.14-0.59-0.71-1.55-1.06-2.87-1.06s-2.28 0.35-2.88 1.06z" fill="#282828" fill-rule="nonzero"/>
  <path id="11" d="m291 185v-11c0-0.23 0.07-0.43 0.23-0.59 0.16-0.17 0.35-0.25 0.58-0.25h11.4c0.23 0 0.43 0.08 0.59 0.25 0.16 0.16 0.24 0.36 0.24 0.59v11c0 0.22-0.09 0.42-0.25 0.58-0.17 0.16-0.37 0.24-0.6 0.24h-1.63c-0.23 0-0.43-0.08-0.59-0.24-0.17-0.16-0.25-0.36-0.25-0.58v-9.31h-6.44v9.31c0 0.22-0.08 0.42-0.24 0.58s-0.36 0.24-0.58 0.24h-1.66c-0.23 0-0.42-0.08-0.59-0.24-0.16-0.16-0.24-0.36-0.24-0.58z" fill="#282828" fill-rule="nonzero"/>
  <path id="12" d="m307 185v-11c0-0.23 0.08-0.43 0.24-0.59 0.15-0.17 0.35-0.25 0.58-0.25h6.71c3.55 0 5.32 1.64 5.32 4.91 0 3.26-1.77 4.9-5.32 4.9h-4.21v1.98c0 0.23-0.09 0.43-0.25 0.59s-0.35 0.24-0.58 0.24h-1.66c-0.22 0-0.42-0.08-0.59-0.24-0.16-0.16-0.24-0.36-0.24-0.58zm3.32-4.48h3.21c0.98 0 1.73-0.16 2.24-0.49 0.51-0.34 0.77-0.98 0.77-1.92 0-0.95-0.26-1.59-0.77-1.93-0.51-0.33-1.26-0.49-2.24-0.49h-3.21v4.83z" fill="#282828" fill-rule="nonzero"/>
  <path id="13" d="m322 185c-1.2-1.06-1.8-2.72-1.8-5.01 0-2.28 0.6-3.95 1.8-5 1.21-1.05 2.97-1.58 5.29-1.58s4.08 0.53 5.28 1.58 1.8 2.72 1.8 5c0 2.29-0.6 3.95-1.8 5.01-1.2 1.05-2.96 1.57-5.28 1.57s-4.08-0.52-5.29-1.57zm2.41-8.15c-0.59 0.7-0.89 1.75-0.89 3.14 0 1.4 0.3 2.45 0.89 3.15 0.6 0.7 1.56 1.05 2.88 1.05 1.33 0 2.28-0.35 2.88-1.05 0.59-0.7 0.89-1.75 0.89-3.15 0-1.39-0.3-2.44-0.89-3.14-0.6-0.71-1.55-1.06-2.88-1.06-1.32 0-2.28 0.35-2.88 1.06z" fill="#282828" fill-rule="nonzero"/>
  <path id="14" d="m337 185v-11c0-0.24 0.08-0.44 0.24-0.6s0.36-0.24 0.6-0.24h1.54c0.23 0 0.43 0.08 0.59 0.24s0.24 0.35 0.24 0.58v8.81l5.01-8.79c0.13-0.23 0.32-0.43 0.56-0.59 0.23-0.17 0.45-0.25 0.65-0.25h2.59c0.23 0 0.42 0.08 0.58 0.25 0.16 0.16 0.24 0.36 0.24 0.59v11c0 0.22-0.08 0.42-0.25 0.58-0.16 0.16-0.36 0.24-0.58 0.24h-1.55c-0.23 0-0.43-0.08-0.59-0.24s-0.24-0.36-0.24-0.58v-8.17l-4.59 8.17c-0.14 0.22-0.33 0.42-0.58 0.58-0.24 0.16-0.48 0.24-0.71 0.24h-2.91c-0.23 0-0.43-0.08-0.59-0.24-0.17-0.16-0.25-0.36-0.25-0.58z" fill="#282828" fill-rule="nonzero"/>
  <path id="15" d="m351 183c0-0.35 0.1-0.6 0.3-0.75 0.21-0.15 0.41-0.22 0.6-0.22h1.04c0.54 0 0.96 0.32 1.27 0.97 0.15 0.31 0.39 0.56 0.74 0.75 0.35 0.18 0.73 0.28 1.15 0.28h2.76c0.64 0 1.12-0.11 1.43-0.31 0.32-0.2 0.48-0.55 0.48-1.05 0-0.49-0.16-0.84-0.48-1.04-0.31-0.21-0.79-0.31-1.43-0.31h-2.27c-0.24 0-0.43-0.08-0.59-0.24s-0.24-0.36-0.24-0.59v-0.72c0-0.22 0.07-0.41 0.23-0.58 0.15-0.16 0.34-0.25 0.56-0.25h1.98c0.71 0 1.23-0.1 1.56-0.32 0.33-0.21 0.5-0.55 0.5-1.03s-0.17-0.82-0.5-1.03c-0.33-0.22-0.85-0.32-1.56-0.32h-2.14c-0.95 0-1.61 0.36-1.97 1.08-0.27 0.55-0.66 0.83-1.19 0.83h-1.05c-0.1 0-0.22-0.02-0.34-0.06s-0.24-0.15-0.37-0.31c-0.12-0.17-0.19-0.37-0.19-0.61 0-1 0.51-1.82 1.52-2.46s2.1-0.96 3.28-0.96h2.7c3.42 0 5.13 1.28 5.13 3.85 0 1.07-0.41 1.92-1.22 2.53 0.93 0.58 1.4 1.42 1.4 2.54 0 1.36-0.43 2.34-1.27 2.94-0.85 0.6-2.07 0.9-3.66 0.9h-3.37c-1.19 0-2.29-0.32-3.29-0.98-1-0.65-1.5-1.5-1.5-2.53z" fill="#282828" fill-rule="nonzero"/>
  <path id="16" d="m366 185v-11c0-0.23 0.08-0.43 0.24-0.59 0.17-0.17 0.36-0.25 0.59-0.25h7.16c0.8 0 1.53 0.11 2.2 0.33 0.65 0.23 1.22 0.62 1.68 1.18s0.7 1.25 0.7 2.08c0 0.9-0.4 1.68-1.19 2.32 1.13 0.6 1.7 1.58 1.69 2.93 0 1.2-0.45 2.13-1.35 2.79s-2.01 0.99-3.31 0.99h-7.58c-0.23 0-0.42-0.08-0.59-0.24-0.16-0.16-0.24-0.36-0.24-0.58zm3.32-1.56h5.03c0.46 0 0.81-0.13 1.04-0.4 0.24-0.27 0.36-0.64 0.36-1.11s-0.12-0.84-0.36-1.11-0.58-0.41-1.04-0.41h-5.03v3.03zm0-5.33h4.7c0.37 0 0.67-0.12 0.89-0.34 0.23-0.22 0.34-0.52 0.34-0.92s-0.11-0.71-0.34-0.93c-0.22-0.23-0.52-0.34-0.89-0.34h-4.7v2.53z" fill="#282828" fill-rule="nonzero"/>
  <path id="17" d="m382 185c-1.2-1.06-1.8-2.72-1.8-5.01 0-2.28 0.6-3.95 1.8-5s2.97-1.58 5.29-1.58 4.08 0.53 5.28 1.58 1.8 2.72 1.8 5c0 2.29-0.6 3.95-1.8 5.01-1.2 1.05-2.96 1.57-5.28 1.57s-4.09-0.52-5.29-1.57zm2.41-8.15c-0.6 0.7-0.9 1.75-0.9 3.14 0 1.4 0.3 2.45 0.9 3.15 0.59 0.7 1.55 1.05 2.88 1.05 1.32 0 2.28-0.35 2.87-1.05s0.89-1.75 0.89-3.15c0-1.39-0.3-2.44-0.89-3.14-0.59-0.71-1.55-1.06-2.87-1.06-1.33 0-2.29 0.35-2.88 1.06z" fill="#282828" fill-rule="nonzero"/>
  <path id="18" d="m394 185v-0.85c0-0.23 0.08-0.42 0.24-0.58s0.35-0.24 0.58-0.24h0.68l1.63-6.66c0.57-2.31 2.48-3.46 5.73-3.47h4.76c0.22 0 0.42 0.08 0.58 0.24s0.24 0.35 0.24 0.58v11c0 0.23-0.08 0.43-0.24 0.58-0.16 0.16-0.36 0.23-0.58 0.23h-12.8c-0.23 0-0.43-0.08-0.59-0.24s-0.24-0.36-0.24-0.58zm4.91-1.67h6.21v-7.64h-2.61c-0.55 0-1.01 0.15-1.37 0.46-0.37 0.3-0.62 0.73-0.75 1.28l-1.48 5.9z" fill="#282828" fill-rule="nonzero"/>
  <path id="19" d="m412 185c-1.09-1.05-1.63-2.66-1.63-4.83s0.54-3.78 1.63-4.82 2.72-1.56 4.9-1.56h1.96c1.33 0 2.51 0.34 3.53 1.03 1.03 0.7 1.54 1.65 1.54 2.85 0 0.34-0.1 0.59-0.31 0.74s-0.4 0.23-0.6 0.23h-1.05c-0.53 0-0.95-0.33-1.25-0.97-0.44-0.93-1.16-1.39-2.17-1.39h-1.57c-1.28 0-2.15 0.27-2.61 0.82-0.46 0.56-0.69 1.58-0.69 3.07s0.23 2.51 0.69 3.06c0.46 0.56 1.33 0.84 2.61 0.84h1.76c1.01 0 1.73-0.47 2.15-1.39 0.31-0.65 0.73-0.98 1.27-0.98h1.05c0.1 0 0.22 0.03 0.34 0.07s0.24 0.14 0.37 0.31c0.12 0.16 0.19 0.36 0.19 0.6 0 1.2-0.51 2.15-1.54 2.84-1.01 0.69-2.19 1.03-3.52 1.03h-2.15c-2.18 0-3.81-0.51-4.9-1.55z" fill="#282828" fill-rule="nonzero"/>
  <path id="20" d="m425 175v-0.82c0-0.24 0.07-0.44 0.23-0.6s0.36-0.24 0.6-0.24h11.2c0.24 0 0.44 0.08 0.6 0.24s0.24 0.36 0.24 0.6v0.82c0 0.24-0.08 0.44-0.24 0.59-0.16 0.16-0.36 0.24-0.6 0.24h-3.93v9.32c0 0.23-0.08 0.43-0.24 0.58-0.16 0.16-0.35 0.23-0.58 0.23h-1.67c-0.23 0-0.42-0.07-0.58-0.23-0.16-0.15-0.24-0.35-0.24-0.58v-9.32h-3.93c-0.24 0-0.44-0.08-0.6-0.24-0.16-0.15-0.23-0.35-0.23-0.59z" fill="#282828" fill-rule="nonzero"/>
  <path id="21" d="m439 185v-11c0-0.23 0.08-0.43 0.24-0.59 0.17-0.17 0.36-0.25 0.59-0.25h7.16c0.8 0 1.53 0.11 2.2 0.33 0.65 0.23 1.22 0.62 1.68 1.18s0.7 1.25 0.7 2.08c0 0.9-0.4 1.68-1.19 2.32 1.13 0.6 1.7 1.58 1.69 2.93 0 1.2-0.45 2.13-1.35 2.79s-2.01 0.99-3.31 0.99h-7.58c-0.23 0-0.42-0.08-0.59-0.24-0.16-0.16-0.24-0.36-0.24-0.58zm3.32-1.56h5.03c0.46 0 0.81-0.13 1.05-0.4 0.23-0.27 0.35-0.64 0.35-1.11s-0.12-0.84-0.36-1.11-0.58-0.41-1.04-0.41h-5.03v3.03zm0-5.33h4.7c0.37 0 0.67-0.12 0.89-0.34 0.23-0.22 0.34-0.52 0.34-0.92s-0.11-0.71-0.34-0.93c-0.22-0.23-0.52-0.34-0.89-0.34h-4.7v2.53z" fill="#282828" fill-rule="nonzero"/>
  <path id="22" d="m453 185 2.21-8.38c0.6-2.28 2.54-3.42 5.84-3.43h4.75c0.21 0 0.39 0.08 0.54 0.25 0.14 0.16 0.21 0.35 0.21 0.57v11c0 0.23-0.08 0.43-0.24 0.58-0.17 0.16-0.36 0.23-0.59 0.23h-1.66c-0.24 0-0.44-0.07-0.59-0.23-0.16-0.15-0.24-0.35-0.24-0.59v-2.22h-6.23l-0.59 2.22c-0.06 0.24-0.2 0.44-0.4 0.59-0.21 0.16-0.43 0.23-0.66 0.23h-1.74c-0.23 0-0.41-0.07-0.52-0.23-0.12-0.15-0.15-0.35-0.09-0.58zm4.67-4.72h5.56v-4.6h-2.5c-0.55 0-1.04 0.16-1.46 0.48s-0.71 0.75-0.85 1.29l-0.75 2.83z" fill="#282828" fill-rule="nonzero"/>
  <path id="path39" d="m72.7 73.8h9.23v19.5c2.05-0.21 3.44-0.74 4.16-1.6s1.85-3.24 3.35-7.15c1.9-4.96 3.82-8.06 5.74-9.27 1.91-1.2 4.98-1.81 9.22-1.81 0.22 0 0.66-0.01 1.34-0.03v6.85l-1.3-0.03c-1.89 0-3.27 0.24-4.14 0.7-0.87 0.47-1.57 1.19-2.11 2.15s-1.34 2.94-2.39 5.93c-0.56 1.59-1.17 2.91-1.83 3.98-0.64 1.07-1.8 2.07-3.45 3.01 2.04 0.58 3.73 1.77 5.07 3.54 1.33 1.77 2.8 4.27 4.39 7.51l6.21 12.6h-10.8l-5.46-11.8c-0.08-0.17-0.27-0.49-0.53-0.97-0.11-0.16-0.49-0.88-1.15-2.16-1.16-2.26-2.12-3.67-2.86-4.23-0.75-0.57-1.89-0.86-3.43-0.88v20.1h-9.23v-45.9z" fill="#FF8A00" fill-rule="nonzero"/>
  <path id="path41" d="m109 103c0-2.92 0.71-5.75 2.14-8.49s3.46-4.83 6.08-6.27 5.54-2.17 8.78-2.17c4.99 0 9.08 1.64 12.3 4.91 3.2 3.28 4.79 7.4 4.79 12.4 0 5.04-1.61 9.21-4.83 12.5-3.23 3.31-7.28 4.97-12.2 4.97-3.02 0-5.91-0.7-8.66-2.07-2.74-1.38-4.83-3.4-6.26-6.07-1.43-2.66-2.14-5.91-2.14-9.73zm8.97 0.47c0 3.3 0.78 5.83 2.33 7.58 1.56 1.77 3.47 2.64 5.75 2.64 2.27 0 4.18-0.87 5.72-2.64 1.54-1.75 2.31-4.3 2.31-7.64 0-3.26-0.77-5.77-2.31-7.52-1.54-1.76-3.45-2.64-5.72-2.64-2.28 0-4.19 0.88-5.75 2.64-1.55 1.75-2.33 4.28-2.33 7.58z" fill="#FF8A00" fill-rule="nonzero"/>
  <polygon id="polygon43" points="150 86.4 161 86.4 169 110 177 86.4 188 86.4 188 120 180 120 180 97.8 172 120 165 120 157 97.8 157 120 150 120" fill="#FF8A00" fill-rule="nonzero"/>
  <polygon id="polygon45" points="196 86.4 225 86.4 225 120 217 120 217 93.5 205 93.5 205 120 196 120" fill="#FF8A00" fill-rule="nonzero"/>
  <path id="path47" d="m237 86.4h29.2v33.3h-8.73v-26.2h-11.8v15c0 3.81-0.43 6.48-1.3 8.01-0.88 1.54-1.85 2.55-2.91 3.03-1.05 0.48-2.76 0.72-5.1 0.72-1.39 0-3.24-0.19-5.52-0.55v-6.46c0.19 0 0.68 0.02 1.46 0.06 0.92 0.06 1.63 0.1 2.12 0.1 1.19 0 1.91-0.4 2.19-1.18 0.27-0.79 0.4-2.97 0.4-6.55v-19.2z" fill="#FF8A00" fill-rule="nonzero"/>
  <path id="path49" d="m294 109 8.72 1.47c-1.12 3.22-2.89 5.66-5.3 7.35-2.42 1.67-5.44 2.52-9.06 2.52-5.74 0-9.99-1.89-12.7-5.67-2.18-3.04-3.27-6.86-3.27-11.5 0-5.51 1.43-9.84 4.29-13 2.85-3.13 6.47-4.69 10.8-4.69 4.9 0 8.78 1.64 11.6 4.91 2.83 3.26 4.19 8.27 4.06 15h-21.8c0.06 2.61 0.76 4.64 2.11 6.09 1.34 1.45 3.01 2.18 5.01 2.18 1.37 0 2.51-0.37 3.43-1.12 0.94-0.75 1.64-1.96 2.12-3.62zm0.51-8.91c-0.07-2.55-0.72-4.5-1.96-5.82-1.24-1.34-2.74-2-4.53-2-1.9 0-3.47 0.71-4.71 2.11s-1.84 3.31-1.82 5.71h13z" fill="#FF8A00" fill-rule="nonzero"/>
  <path id="path51" d="m310 86.4h8.73v13.6c1.45-0.17 2.48-0.62 3.08-1.34 0.6-0.73 1.33-2.32 2.18-4.78 1.12-3.27 2.34-5.36 3.68-6.28 1.33-0.91 3.07-1.37 5.23-1.37 0.67 0 1.81 0.05 3.46 0.16l0.03 5.8c-2.31 0-3.79 0.21-4.42 0.65-0.65 0.46-1.35 1.82-2.09 4.1-1.02 3.05-2.5 4.94-4.41 5.65 2.76 0.77 5.1 3.19 7.01 7.26 0.09 0.21 0.21 0.43 0.34 0.66l4.88 9.17h-9.39l-4.35-9.65c-0.89-1.94-1.67-3.19-2.33-3.75-0.64-0.55-1.62-0.83-2.9-0.83v14.2h-8.73v-33.3z" fill="#FF8A00" fill-rule="nonzero"/>
  <path id="path53" d="m370 96.3-8.6 1.54c-0.28-1.72-0.94-3.02-1.97-3.89s-2.36-1.3-3.99-1.3c-2.18 0-3.92 0.75-5.21 2.27-1.3 1.52-1.94 4.05-1.94 7.6 0 3.95 0.66 6.74 1.97 8.38 1.32 1.63 3.08 2.44 5.29 2.44 1.65 0 3.01-0.48 4.06-1.43 1.06-0.95 1.8-2.58 2.24-4.91l8.59 1.47c-0.89 3.97-2.6 6.98-5.12 9-2.53 2.03-5.91 3.05-10.2 3.05-4.81 0-8.67-1.54-11.5-4.6-2.88-3.08-4.31-7.33-4.31-12.8 0-5.5 1.44-9.77 4.32-12.8 2.87-3.07 6.77-4.6 11.7-4.6 4.01 0 7.21 0.88 9.58 2.62s4.07 4.39 5.11 7.96z" fill="#FF8A00" fill-rule="nonzero"/>
  <path id="path55" d="m377 73.8h9.23v19.5c2.05-0.21 3.44-0.74 4.16-1.6s1.85-3.24 3.35-7.15c1.9-4.96 3.82-8.06 5.74-9.27 1.91-1.2 4.98-1.81 9.22-1.81 0.22 0 0.66-0.01 1.34-0.03v6.85l-1.3-0.03c-1.89 0-3.27 0.24-4.14 0.7-0.87 0.47-1.57 1.19-2.11 2.15-0.55 0.96-1.34 2.94-2.39 5.93-0.56 1.59-1.17 2.91-1.83 3.98-0.64 1.07-1.8 2.07-3.46 3.01 2.05 0.58 3.74 1.77 5.08 3.54 1.33 1.77 2.8 4.27 4.39 7.51l6.21 12.6h-10.8l-5.46-11.8c-0.09-0.17-0.27-0.49-0.53-0.97-0.11-0.16-0.49-0.88-1.15-2.16-1.16-2.26-2.12-3.67-2.86-4.23-0.76-0.57-1.89-0.86-3.43-0.88v20.1h-9.23v-45.9z" fill="#fff" fill-rule="nonzero"/>
  <path id="path57" d="m456 120h-9.94l-3.94-10.4h-18.3l-3.79 10.4h-9.76l17.7-45.9h9.75l18.3 45.9zm-16.9-18.2-6.33-17-6.16 17h12.5z" fill="#fff" fill-rule="nonzero"/>
  <path id="path59" d="m467 73.8h31.4v38.1h4.01v17.8h-7.7v-9.99h-28.6v9.99h-7.7v-17.8h3.89c1.88-3.92 3.14-8.47 3.74-13.6 0.61-5.18 0.9-11.7 0.9-19.6v-4.84zm8.79 7.75c0 13.9-1.28 24-3.82 30.4h17.2v-30.4h-13.4z" fill="#fff" fill-rule="nonzero"/>
 </g>
</svg>
